<?xml version="1.0" encoding="utf-8"?>
<!-- Generator: Adobe Illustrator 16.0.0, SVG Export Plug-In . SVG Version: 6.00 Build 0)  -->
<!DOCTYPE svg PUBLIC "-//W3C//DTD SVG 1.1//EN" "http://www.w3.org/Graphics/SVG/1.1/DTD/svg11.dtd">
<svg version="1.1" id="Layer_1" xmlns="http://www.w3.org/2000/svg" xmlns:xlink="http://www.w3.org/1999/xlink" x="0px" y="0px"
	 width="640px" height="480px" viewBox="0 0 640 480" enable-background="new 0 0 640 480" xml:space="preserve">
<path fill-rule="evenodd" clip-rule="evenodd" d="M33.467,183.409c-2.176-0.979-4.341-1.985-6.533-2.928
	c-3.849-1.656-7.685-3.347-11.58-4.888c-5.223-2.067-7.206-6.126-7.338-11.42c-0.025-0.993,0.146-2.044-0.12-2.968
	c-0.782-2.708,0.283-4.838,2.117-6.536c2.004-1.857,4.122-3.716,6.492-5.026c4.045-2.235,8.335-4.023,12.503-6.039
	c1.557-0.753,3.059-1.621,5.305-2.819c-1.53-0.811-2.431-1.287-3.33-1.764c-1.358-0.721-2.708-1.459-4.075-2.161
	c-2.179-1.119-3.072-2.788-3.093-5.326c-0.025-2.949-0.589-5.897-0.992-8.836c-0.327-2.383-0.096-3.014,2.183-4.203
	c3.033-1.583,6.092-3.117,9.171-4.607c4.964-2.403,9.953-4.75,14.93-7.126c0.697-0.333,1.396-0.664,2.071-1.038
	c2.915-1.616,5.679-1.489,8.762-0.066c4.498,2.077,9.214,3.683,13.857,5.438c0.779,0.294,1.657,0.329,2.892,0.558
	c0.092-1.47,0.261-2.64,0.215-3.801c-0.073-1.88,0.665-3.12,2.385-3.933c8.374-3.959,16.725-7.967,25.083-11.958
	c1.494-0.713,2.989-1.423,4.477-2.147c8.628-4.202,17.272-8.375,25.869-12.641c1.714-0.851,3.295-1.024,5.073-0.355
	c8.881,3.344,17.775,6.65,26.666,9.966c4.237,1.581,8.516,3.059,12.701,4.766c3.219,1.313,6.032,0.958,9.139-0.633
	c14.049-7.19,28.222-14.137,42.299-21.273c1.931-0.979,3.606-1.21,5.65-0.468c11.719,4.256,23.468,8.429,35.212,12.612
	c7.694,2.74,15.406,5.429,23.097,8.179c15.172,5.424,30.322,10.91,45.506,16.298c8.215,2.916,16.495,5.642,24.719,8.529
	c8.121,2.853,16.211,5.792,24.31,8.709c7.476,2.692,14.938,5.422,22.418,8.101c15.999,5.73,32,11.459,48.015,17.147
	c11.442,4.064,22.946,7.956,34.352,12.119c9.009,3.288,17.982,6.697,26.83,10.387c5.411,2.257,9.623,6.17,12.528,11.356
	c0.321,0.572,0.761,1.128,0.895,1.747c1.13,5.234,1.557,10.491-0.12,15.691c-1.253,3.887-3.652,6.993-6.886,9.476
	c-1.048,0.804-2.052,1.668-3.064,2.518c-1.804,1.513-1.882,2.177,0.135,3.456c3.873,2.454,6.676,5.811,8.414,9.948
	c3.186,7.586,2.46,18.604-5.096,25.221c-6.011,5.268-12.857,9.294-19.436,13.712c-22.793,15.302-45.69,30.451-68.521,45.697
	c-14.119,9.428-28.256,18.831-42.261,28.428c-8.896,6.096-18.669,10.011-29.167,11.896c-7.35,1.318-14.842,2.08-22.367,1.573
	c-11.762-0.792-22.99-3.563-33.761-8.475c-10.432-4.755-21.071-9.052-31.596-13.604c-10.728-4.641-21.415-9.377-32.142-14.021
	c-12.142-5.256-24.313-10.445-36.464-15.685c-8.81-3.799-17.603-7.638-26.41-11.441c-9.11-3.935-18.238-7.825-27.341-11.777
	c-9.305-4.041-18.58-8.154-27.886-12.195c-6.877-2.984-13.794-5.881-20.676-8.857c-9.412-4.072-18.801-8.195-28.211-12.272
	c-6.881-2.98-13.786-5.902-20.667-8.882c-9.511-4.12-19.009-8.271-28.514-12.402c-3.641-1.583-7.307-3.109-10.926-4.741
	c-1.602-0.722-3.183-1.536-4.649-2.497c-1.793-1.174-3.23-2.759-3.577-4.969c-0.408-2.603-0.732-5.228-0.932-7.855
	c-0.295-3.909,1.489-6.891,4.751-8.811c4.461-2.625,9.073-4.993,13.618-7.474c1.035-0.565,2.065-1.141,3.098-1.711
	C33.471,184.007,33.47,183.708,33.467,183.409z M187.03,93.871c2.002,0.916,3.312,1.612,4.688,2.127
	c7.545,2.823,15.109,5.596,22.662,8.397c1.863,0.691,3.222,1.71,3.318,4.003c0.099,2.375,1.568,3.683,3.857,4.36
	c2.533,0.748,5,1.738,7.46,2.71c2.085,0.824,4.121,1.772,6.931,2.993c-1.499,1.1-2.258,1.817-3.147,2.287
	c-13.065,6.896-26.138,13.78-39.23,20.624c-7.623,3.985-15.321,7.831-22.904,11.89c-1.667,0.892-3.034,0.847-4.662,0.207
	c-7.902-3.106-15.832-6.141-23.737-9.239c-15.914-6.237-31.816-12.502-47.729-18.743c-1.103-0.432-2.248-0.754-3.364-1.125
	c-0.704,1.909-0.704,1.909-0.341,4.575c0.627,4.605-2.321,10.28-6.479,12.38c-4.924,2.489-9.846,4.985-14.807,7.398
	c-8.074,3.927-4.888,3.791-13.438,0.49c-5.143-1.986-10.195-4.202-15.32-6.235c-1.497-0.594-3.008-1.479-4.751-0.629
	c-6.741,3.284-13.526,6.48-20.217,9.861c-1.536,0.775-2.896,2.032-4.106,3.289c-2.703,2.807-2.303,6.373,1.033,8.362
	c2.45,1.461,5.075,2.668,7.715,3.766c13.341,5.55,26.721,11.007,40.07,16.537c9.682,4.009,19.336,8.087,29.007,12.125
	c10.587,4.42,21.18,8.826,31.77,13.239c14.052,5.856,28.098,11.726,42.157,17.567c11.815,4.908,23.649,9.771,35.466,14.677
	c13.445,5.583,26.878,11.192,40.317,16.791c10.583,4.408,21.17,8.805,31.746,13.231c7.119,2.979,14.208,6.027,21.331,8.998
	c6.918,2.884,13.909,5.599,20.783,8.586c7.768,3.377,15.888,5.305,24.235,6.399c1.616,0.212,3.378-0.285,4.902,0.145
	c2.645,0.746,5.254,0.376,7.875,0.343c0.637-0.008,1.268-0.512,2.36-0.985c-1.582-0.758-2.72-1.171-3.712-1.81
	c-1.744-1.121-1.923-2.97-0.566-4.525c2.361-2.704,9.04-2.917,11.57-0.365c1.479,1.491,1.431,3.226-0.201,4.545
	c-0.719,0.582-1.552,1.021-2.985,1.946c5.019,0.701,9.222,0.585,13.381-0.755c0.939-0.303,1.897-0.551,2.852-0.8
	c2.554-0.667,5.127-1.263,7.661-1.991c5.905-1.699,11.038-4.967,16.189-8.163c2.47-1.532,4.819-3.259,7.547-5.116
	c-1.352-0.664-2.115-1.104-2.925-1.428c-5.836-2.338-11.705-4.591-17.512-6.998c-4.066-1.687-8.065-3.541-12.064-5.385
	c-1.893-0.872-2.612-2.397-2.628-4.538c-0.025-3.514-0.331-7.027-0.588-10.538c-0.14-1.927,0.373-3.42,2.115-4.481
	c7.904-4.815,15.854-9.562,23.645-14.557c6.004-3.851,4.383-3.724,12.051-0.888c2.132,0.788,4.297,1.485,6.85,2.362
	c0.156-1.395,0.333-2.332,0.351-3.271c0.046-2.318,0.1-4.641-0.002-6.956c-0.099-2.228,0.753-3.675,2.701-4.846
	c7.083-4.258,14.085-8.649,21.103-13.015c5.751-3.579,5.736-3.583,12.094-1.175c1.902,0.72,3.84,1.35,5.965,2.092
	c0.252-1.058,0.512-1.669,0.525-2.287c0.058-2.648,0.07-5.3,0.042-7.949c-0.015-1.587,0.602-2.635,2.009-3.485
	c7.826-4.73,15.658-9.458,23.357-14.393c2.423-1.552,4.597-1.659,7.167-0.714c7.866,2.893,15.786,5.643,23.654,8.533
	c2.078,0.764,3.658,1.04,5.729-0.592c2.913-2.293,6.433-2.053,9.659-0.146c2.033,1.201,2.43,2.815,0.948,4.301
	c-2.614,2.622-1.968,5.799-1.768,8.907c0.038,0.595,0.495,1.163,0.967,2.203c1.431-2.118,2.218-3.289,3.013-4.454
	c2.559-3.752,2.504-7.583,0.389-11.5c-3.068-5.677-8.187-8.955-13.911-11.15c-11.838-4.541-23.792-8.78-35.727-13.066
	c-16.087-5.777-32.196-11.492-48.304-17.213c-8.001-2.841-16.029-5.612-24.029-8.457c-15.378-5.468-30.741-10.975-46.116-16.45
	c-7.584-2.701-15.187-5.349-22.77-8.054c-15.269-5.445-30.526-10.924-45.795-16.366c-7.792-2.777-15.607-5.486-23.399-8.261
	c-11.635-4.143-23.271-8.282-34.875-12.511c-2.029-0.74-3.724-0.629-5.658,0.35c-13.29,6.732-26.631,13.362-39.949,20.036
	C189.582,92.375,188.677,92.939,187.03,93.871z M79.471,202.605c-0.146,1.818-0.376,2.893-0.295,3.942
	c0.416,5.382,0.972,10.754,1.36,16.138c0.285,3.959,2.196,6.295,5.939,7.837c12.444,5.124,24.771,10.529,37.137,15.84
	c10.441,4.482,20.866,8.999,31.311,13.473c13.791,5.907,27.593,11.788,41.391,17.678c9.43,4.025,18.862,8.048,28.292,12.072
	c8.616,3.678,17.24,7.335,25.844,11.041c11.035,4.756,22.043,9.571,33.078,14.325c12.148,5.233,24.306,10.441,36.476,15.623
	c1.99,0.848,4.063,1.502,6.396,2.356c0.08-1.1,0.214-1.832,0.167-2.552c-0.128-1.971-0.452-3.935-0.479-5.904
	c-0.074-5.188,0.021-10.378-0.056-15.567c-0.052-3.472-0.688-4.079-3.831-5.292c-7.815-3.013-15.636-6.02-23.375-9.218
	c-13.143-5.433-26.218-11.031-39.336-16.524c-12.71-5.324-25.451-10.576-38.156-15.91c-14.537-6.102-29.035-12.297-43.578-18.383
	c-13.83-5.789-27.711-11.455-41.545-17.236c-15.564-6.502-31.098-13.078-46.649-19.609
	C86.441,205.424,83.299,204.169,79.471,202.605z M212.649,106.875c-1.176-0.777-1.656-1.216-2.221-1.444
	c-1.94-0.787-3.905-1.515-5.871-2.237c-9.001-3.308-18.017-6.579-27.008-9.915c-12.711-4.717-25.412-9.461-38.098-14.243
	c-1.686-0.635-3.122-0.497-4.723,0.306c-4.039,2.023-8.178,3.844-12.236,5.828c-12.384,6.054-24.75,12.144-37.117,18.232
	c-1.044,0.514-2.045,1.118-3.331,1.825c2.697,2.424,5.684,3.327,8.494,4.427c12.94,5.066,25.94,9.983,38.911,14.971
	c8.134,3.128,16.272,6.247,24.372,9.46c2.55,1.012,4.807,0.92,7.25-0.429c5.113-2.823,10.333-5.453,15.529-8.123
	c10.888-5.592,21.791-11.155,32.682-16.742C210.226,108.309,211.131,107.743,212.649,106.875z M348.158,311.594
	c-1.026,2.305-0.523,4.02-0.227,5.744c0.564,3.291,0.002,5.853-3.325,7.76c-5.058,2.899-9.86,6.26-14.68,9.556
	c-1.688,1.155-3.208,1.108-4.94,0.35c-5.05-2.214-10.113-4.393-15.177-6.571c-9.926-4.269-19.854-8.536-29.786-12.791
	c-10.134-4.342-20.274-8.666-30.41-13.005c-10.034-4.297-20.06-8.611-30.098-12.898c-9.632-4.114-19.28-8.189-28.911-12.307
	c-9.935-4.248-19.854-8.533-29.786-12.787c-10.133-4.342-20.274-8.665-30.411-12.999s-20.272-8.67-30.409-13.006
	c-6.284-2.689-12.567-5.382-18.853-8.068c-1.173-0.502-2.083-1.157-2.204-2.601c-0.653-7.778-1.459-15.545-1.95-23.333
	c-0.145-2.294-0.75-3.557-2.969-4.439c-7.376-2.93-14.667-6.076-21.987-9.15c-3.964-1.665-7.903-3.393-11.889-5.003
	c-1.391-0.562-2.803-1.344-4.426-0.486c-5.846,3.092-11.875,5.873-17.528,9.282c-5.653,3.409-5.385,8.501,0.381,11.759
	c2.675,1.511,5.583,2.622,8.419,3.834c10.445,4.465,20.915,8.874,31.355,13.351c12.061,5.171,24.095,10.407,36.153,15.587
	c9.117,3.917,18.263,7.766,27.375,11.696c4.759,2.053,9.445,4.272,14.208,6.317c8.911,3.827,17.865,7.556,26.779,11.378
	c11.246,4.821,22.458,9.723,33.708,14.536c11.661,4.99,23.364,9.882,35.022,14.881c13.587,5.826,27.141,11.729,40.716,17.585
	c13.871,5.982,27.697,12.074,41.652,17.854c5.379,2.229,10.988,3.999,16.618,5.513c9.847,2.646,19.991,1.503,29.975,1.355
	c10.704-0.158,20.826-3.449,30.231-8.682c0.624-0.347,1.188-0.803,2.204-1.498C377.819,323.977,363.122,317.841,348.158,311.594z
	 M453.044,290.28c0.819-0.43,1.608-0.767,2.316-1.229c6.922-4.509,13.854-8.999,20.736-13.569
	c15.051-9.996,30.086-20.015,45.089-30.083c2.092-1.403,4.098-2.998,5.915-4.739c5.138-4.922,5.924-10.908,2.461-16.758
	c-2.032-3.433-4.988-5.81-8.379-7.756c-1.202-0.691-2.185-0.514-3.352,0.23c-7.699,4.909-15.494,9.667-23.162,14.623
	c-5.818,3.76-11.435,7.833-17.252,11.596c-7.301,4.721-14.662,9.356-22.107,13.846c-2.894,1.746-4.193,3.609-3.948,7.3
	c0.474,7.139,0.131,14.333,0.151,21.504C451.519,286.881,451.359,288.586,453.044,290.28z M18.01,169.062
	c-1.836,3.676-1.501,4.716,1.617,6.026c13.121,5.512,26.249,11.003,39.369,16.514c12.307,5.168,24.597,10.375,36.912,15.52
	c8.752,3.655,17.556,7.188,26.3,10.861c14.443,6.067,28.845,12.231,43.286,18.303c13.826,5.813,27.68,11.562,41.522,17.334
	c15.374,6.411,30.754,12.807,46.124,19.228c11.501,4.807,22.994,9.633,34.484,14.466c7.826,3.292,15.632,6.631,23.467,9.899
	c1.242,0.518,2.592,0.773,3.932,1.162c0.903-5.313,0.668-5.635-3.63-7.395c-9.491-3.887-18.956-7.836-28.423-11.779
	c-11.808-4.918-23.603-9.868-35.412-14.781c-7.84-3.263-15.704-6.468-23.543-9.73c-11.809-4.915-23.604-9.865-35.411-14.786
	c-9.365-3.902-18.741-7.777-28.108-11.674c-12.931-5.378-25.857-10.765-38.787-16.145c-9.469-3.94-18.944-7.865-28.41-11.811
	c-11.706-4.879-23.405-9.769-35.105-14.661c-9.971-4.168-19.931-8.363-29.912-12.507C24.938,171.717,21.545,170.449,18.01,169.062z
	 M316.251,342.903c1.062-5.05,0.979-5.301-2.976-7.09c-3.013-1.362-6.08-2.604-9.114-3.92c-8.798-3.819-17.58-7.676-26.39-11.465
	c-8.506-3.659-17.048-7.231-25.558-10.879c-11.651-4.995-23.286-10.03-34.931-15.041c-10.632-4.576-21.268-9.143-31.901-13.714
	c-9.925-4.268-19.847-8.541-29.773-12.806c-12.052-5.179-24.107-10.348-36.158-15.528c-11.545-4.965-23.084-9.942-34.628-14.91
	c-12.251-5.272-24.505-10.537-36.758-15.806c-8-3.441-16-6.881-24-10.326c-0.943-0.406-2.156-0.887-2.633,0.206
	c-0.357,0.819-0.223,2.34,0.341,2.967c0.989,1.102,2.388,1.95,3.766,2.568c6.338,2.842,12.732,5.559,19.098,8.338
	c5.153,2.252,10.277,4.571,15.445,6.787c7.09,3.038,14.233,5.955,21.313,9.018c9.104,3.938,18.153,8.008,27.255,11.953
	c11.028,4.78,22.096,9.472,33.131,14.237c5.467,2.36,10.881,4.844,16.352,7.192c7.089,3.043,14.234,5.954,21.314,9.018
	c9.104,3.938,18.152,8.009,27.255,11.954c11.028,4.78,22.095,9.471,33.13,14.237c5.467,2.359,10.88,4.842,16.352,7.191
	c7.189,3.09,14.431,6.055,21.614,9.159c10.626,4.592,21.218,9.267,31.83,13.892C311.727,341.052,313.854,341.903,316.251,342.903z
	 M438.647,244.554c-0.809-0.453-1.241-0.767-1.724-0.954c-11.718-4.55-23.447-9.069-35.153-13.648
	c-1.493-0.584-2.659-0.412-4.018,0.437c-7.101,4.436-14.271,8.764-21.395,13.163c-0.977,0.603-1.837,1.393-3.226,2.461
	c1.754,0.967,2.914,1.771,4.191,2.285c10.233,4.121,20.485,8.196,30.742,12.261c2.491,0.987,4.717,0.885,7.152-0.752
	c6.767-4.547,13.743-8.779,20.623-13.157C436.729,246.084,437.534,245.391,438.647,244.554z M214.725,108.463
	c-0.89,0.377-1.717,0.666-2.488,1.064c-5.379,2.787-10.729,5.629-16.12,8.393c-10.883,5.579-21.779,11.134-32.685,16.669
	c-5.249,2.663-5.475,3.052-4.499,8.98c0.054,0.326,0.205,0.658,0.174,0.974c-0.342,3.514,2.031,4.624,4.721,5.79
	c3.315,1.437,6.237,1.347,9.387-0.535c4.061-2.425,8.327-4.508,12.522-6.704c9.366-4.904,18.727-9.819,28.131-14.648
	c1.595-0.819,2.318-1.849,2.207-3.624c-0.33-5.259-0.599-10.522-0.901-15.784C215.17,108.951,215.049,108.87,214.725,108.463z
	 M481.941,217.114c-1.331-0.566-1.917-0.839-2.518-1.068c-4.841-1.84-9.679-3.693-14.532-5.502
	c-6.298-2.349-12.608-4.664-18.917-6.985c-1.572-0.578-3.073-1.001-4.729,0.033c-7.096,4.436-14.251,8.777-21.365,13.184
	c-0.605,0.375-1.063,0.988-1.979,1.858c1.367,0.713,2.346,1.343,3.41,1.759c10.682,4.174,21.379,8.309,32.068,12.462
	c1.514,0.588,2.852,0.667,4.355-0.331c4.499-2.981,9.112-5.787,13.67-8.677C474.731,221.741,478.04,219.61,481.941,217.114z
	 M461.027,191.586c1.908,2.213,4.187,2.854,6.314,3.647c9.399,3.506,18.859,6.848,28.229,10.43c2.14,0.818,3.669,0.504,5.497-0.688
	c6.269-4.089,12.646-8.011,18.966-12.021c0.88-0.559,1.675-1.253,2.893-2.173c-1.368-0.555-2.243-0.939-3.14-1.268
	c-4.241-1.551-8.483-3.099-12.733-4.626c-6.736-2.422-13.488-4.805-20.215-7.258c-1.57-0.573-2.868-0.499-4.345,0.438
	c-6.131,3.895-12.346,7.658-18.52,11.485C463.062,190.117,462.205,190.77,461.027,191.586z M85.466,118.367
	c-1.654-0.812-2.486-1.295-3.371-1.642c-8.313-3.257-16.645-6.466-24.944-9.759c-1.218-0.483-2.273-0.607-3.467-0.037
	c-8.448,4.043-16.912,8.056-25.356,12.105c-0.317,0.152-0.498,0.589-0.842,1.018c0.674,0.399,1.114,0.743,1.611,0.941
	c8.913,3.559,17.835,7.093,26.747,10.652c1.346,0.538,2.551,0.303,3.806-0.312c7.526-3.685,15.072-7.329,22.599-11.011
	C83.1,119.907,83.878,119.34,85.466,118.367z M395.989,336.822c1.474-0.893,2.802-1.626,4.059-2.47
	c13.174-8.843,26.314-17.74,39.51-26.552c26.579-17.749,53.188-35.453,79.78-53.181c3.193-2.128,3.463-2.96,2.211-6.978
	c-0.957,0.58-1.896,1.109-2.794,1.704c-15.802,10.46-31.612,20.905-47.388,31.404c-7.52,5.004-14.946,10.149-22.457,15.166
	c-17.41,11.626-34.846,23.214-52.272,34.815C394.067,332.443,393.885,333.528,395.989,336.822z M444.785,292.279
	c-6.117-2.462-11.531-4.624-16.931-6.828c-1.325-0.54-2.377,0.013-3.4,0.681c-8.304,5.429-16.615,10.844-24.86,16.358
	c-0.795,0.531-1.617,1.695-1.645,2.589c-0.151,4.854-0.185,9.718,0.01,14.568c0.099,2.493,1.426,3.015,3.589,1.788
	c0.287-0.162,0.536-0.39,0.811-0.572c13.302-8.873,26.606-17.742,39.902-26.622C442.961,293.773,443.597,293.207,444.785,292.279z
	 M156.813,146.573c-0.132-2.395-0.324-4.747-0.37-7.103c-0.03-1.548-0.693-2.367-2.146-2.901c-3.926-1.444-7.795-3.042-11.699-4.549
	c-14.893-5.749-29.791-11.486-44.688-17.224c-5.137-1.979-10.262-3.991-15.434-5.873c-0.791-0.287-2.139-0.305-2.65,0.172
	c-0.992,0.926-0.72,2.306,0.209,3.263c0.827,0.85,1.792,1.645,2.839,2.181c1.464,0.75,3.048,1.273,4.607,1.82
	c1.105,0.387,1.906,0.939,2.253,2.16c0.657,2.309,2.39,3.643,4.52,4.494c6.242,2.494,12.488,4.978,18.746,7.429
	c12.615,4.945,25.226,9.902,37.875,14.756C152.648,145.879,154.382,147.1,156.813,146.573z M393.639,328.247
	c0.378-0.654,0.481-0.749,0.481-0.845c0.063-9.255,0.156-18.509,0.146-27.765c-0.003-1.916-1.057-2.568-2.836-1.994
	c-0.829,0.267-1.62,0.698-2.373,1.149c-4.482,2.683-9.374,4.321-14.39,5.602c-7.906,2.019-15.938,3.162-24.112,3.231
	c-0.804,0.007-1.606,0.227-2.955,0.43c0.91,0.824,1.303,1.409,1.845,1.637C364.132,315.885,378.833,322.04,393.639,328.247z
	 M410.848,276.628c0.01-3.378-0.096-6.317,0.062-9.242c0.126-2.406-0.617-3.737-3.043-4.666
	c-11.196-4.287-22.302-8.811-33.452-13.218c-0.879-0.349-1.85-0.471-2.767-0.694c-0.265,0.52-0.539,0.807-0.535,1.089
	c0.052,2.859,0.211,5.718,0.212,8.577c0.001,2.205,1.115,3.411,3.064,4.178c11.06,4.354,22.103,8.751,33.161,13.106
	C408.423,276.102,409.374,276.246,410.848,276.628z M87.91,120.008c-1.526,0.612-2.438,0.92-3.3,1.334
	c-6.257,3.002-12.507,6.021-18.752,9.047c-1.785,0.866-3.544,1.785-5.322,2.667c-1.052,0.521-1.938,1.229-1.811,2.505
	c0.351,3.501,0.624,7.024,1.25,10.481c0.543,3.003,2.666,3.947,5.415,2.597c6.334-3.108,12.645-6.267,18.914-9.501
	c0.91-0.47,1.725-1.364,2.271-2.254c1.761-2.874,3.004-5.86,1.803-9.387c-0.375-1.1-0.134-2.405-0.199-3.615
	C88.122,122.813,88.032,121.746,87.91,120.008z M391.655,289.026c-24.074,11.619-48.525,12.198-73.408,4.982
	c-1.121,4.99-0.931,5.374,3.3,7.005c8.146,3.143,16.715,4.064,25.318,4.329c9.18,0.283,18.285-0.799,27.223-2.991
	c5.368-1.315,10.562-3.101,15.379-5.91c1.514-0.883,2.346-1.868,2.205-3.655C391.582,291.621,391.655,290.443,391.655,289.026z
	 M454.545,248.268c0-4.235,0.044-7.843-0.048-11.448c-0.014-0.522-0.576-1.187-1.067-1.507c-0.818-0.535-1.77-0.885-2.692-1.243
	c-8.42-3.26-16.843-6.512-25.273-9.748c-2.158-0.828-4.321-1.657-6.522-2.359c-2.294-0.733-2.984-0.23-3.172,2.214
	c-0.101,1.316-0.051,2.645-0.045,3.968c0.016,4.637,0.29,5.043,4.698,6.754c3.596,1.397,7.224,2.71,10.799,4.153
	c6.622,2.67,13.214,5.419,19.827,8.112C451.941,247.528,452.89,247.751,454.545,248.268z M458.799,194.506
	c-0.308,0.7-0.542,0.994-0.553,1.295c-0.067,1.87-0.113,3.743-0.111,5.614c0.003,4.24,0.271,4.549,4.192,5.94
	c4.252,1.507,8.494,3.049,12.713,4.65c3.085,1.171,6.154,2.39,9.172,3.719c3.399,1.496,6.72,3.173,10.109,4.69
	c0.642,0.288,1.455,0.195,2.695,0.335c0-3.077,0.017-5.903-0.004-8.728c-0.026-3.499-0.093-3.523-3.349-4.729
	c-7.222-2.676-14.421-5.415-21.647-8.079C467.701,197.624,463.352,196.125,458.799,194.506z M392.15,333.596
	c-1.27,0.523-2.067,0.83-2.847,1.18c-2.805,1.256-5.532,2.724-8.416,3.761c-12.227,4.4-24.919,5.406-37.787,4.791
	c-2.843-0.136-5.7-0.543-8.49-1.119c-4.201-0.868-8.35-1.989-12.516-3.019c-2.215-0.547-3.067,0.127-3.081,2.38
	c-0.009,1.683,0.792,2.726,2.354,3.174c3.915,1.121,7.783,2.527,11.773,3.221c5.258,0.913,10.602,1.6,15.928,1.766
	c9.087,0.281,18.073-0.894,26.806-3.484c5.062-1.501,10.2-2.868,14.667-5.933c1.238-0.849,1.899-1.748,1.781-3.232
	C392.246,336.106,392.224,335.128,392.15,333.596z M328.26,305.424c0,6.984-0.027,13.576,0.024,20.167
	c0.011,1.299,0.13,2.666,0.555,3.878c0.695,1.981,1.718,2.275,3.489,1.158c3.716-2.344,7.312-4.893,11.113-7.085
	c2.356-1.36,2.688-3.203,2.402-5.559c-0.263-2.171-0.478-4.358-0.543-6.544c-0.112-3.726,0.273-3.357-3.816-4.37
	c-0.629-0.154-1.319-0.042-1.973-0.124c-2.602-0.327-5.201-0.679-7.802-1.028C330.63,305.772,329.551,305.609,328.26,305.424z
	 M25.837,122.35c-0.689,3.15-0.257,5.618,0.189,8.111c0.386,2.161,1.618,3.561,3.485,4.507c0.882,0.448,1.788,0.855,2.706,1.228
	c6.625,2.688,13.253,5.365,19.886,8.035c1.601,0.645,3.218,1.25,5.309,2.06c-0.308-3.397-0.72-6.298-0.789-9.207
	c-0.058-2.448-1.456-3.418-3.447-4.196c-6.559-2.562-13.075-5.233-19.63-7.805C31.119,124.131,28.632,123.335,25.837,122.35z
	 M442.992,267.642c-0.694,0.326-1.107,0.466-1.46,0.695c-5.085,3.302-10.164,6.608-15.235,9.931
	c-6.547,4.287-13.082,8.594-19.629,12.881c-2.488,1.63-5.062,3.139-7.472,4.876c-1.735,1.251-1.639,1.923,0.118,4.095
	c0.533-0.28,1.129-0.532,1.662-0.88c13.372-8.758,26.717-17.557,40.125-26.258C443.09,271.689,443.745,270.2,442.992,267.642z
	 M434.737,265.345c-4.126-1.673-7.546-3.168-11.055-4.411c-0.907-0.32-2.218-0.104-3.127,0.323c-1.48,0.694-2.862,1.673-4.13,2.721
	c-0.612,0.507-1.185,1.422-1.232,2.187c-0.153,2.417-0.213,4.865-0.001,7.275c0.223,2.54,1.766,3.329,3.891,2.002
	C424.12,272.295,429.074,269.01,434.737,265.345z M476.641,237.206c-2.651-1.062-4.941-2.059-7.286-2.901
	c-4.561-1.637-4.819-1.609-8.679,1.229c-0.742,0.547-1.614,1.492-1.665,2.302c-0.187,2.96-0.102,5.942,0.007,8.913
	c0.021,0.547,0.629,1.073,0.938,1.566C462.73,247.568,474.584,239.842,476.641,237.206z M429.933,282.894
	c2.491,2.315,12.773,6.517,15.548,6.523c0.818-3.064,0.715-14.181-0.266-16.77C440.023,275.95,434.911,279.234,429.933,282.894z
	 M518.205,211.153c-0.674-0.476-0.979-0.797-1.354-0.94c-2.772-1.058-5.558-2.082-8.341-3.114c-2.324-0.862-6.79,1.15-7.072,3.537
	c-0.347,2.927-0.219,5.93-0.066,8.888c0.07,1.398,0.994,1.723,2.404,1.124c0.603-0.256,1.153-0.638,1.709-0.992
	c3.057-1.951,6.12-3.891,9.152-5.88C515.793,213.017,516.872,212.139,518.205,211.153z M412.497,281.812
	c-5.126-3.046-5.367-3.043-9.292-0.473c-2.385,1.56-4.769,3.119-7.173,4.647c-2.708,1.722-2.984,4.185-0.525,6.914
	C401.004,289.313,406.534,285.703,412.497,281.812z M456.385,253.501c-3.363-2.517-6.34-3.23-9.39-0.296
	c-0.467,0.451-1.075,0.757-1.622,1.125c-3.494,2.353-3.71,3.053-2.096,7.572C447.628,259.113,451.908,256.37,456.385,253.501z
	 M497.75,226.502c-2.442-2.379-4.114-2.858-6.352-1.722c-1.65,0.837-3.166,1.943-4.729,2.951c-1.576,1.019-1.521,2.576-1.192,4.117
	c0.287,1.336,1.332,1.901,2.456,1.191C491.232,230.954,494.439,228.723,497.75,226.502z M230.93,118.739
	c-3.801-1.724-7.138-2.988-10.552-4.031c-1.952-0.596-3.079,0.523-2.309,2.396c0.457,1.112,1.473,2.091,2.449,2.862
	c0.738,0.583,1.832,0.696,2.731,1.097C226.075,122.322,228.272,121.304,230.93,118.739z M425.236,259.06
	c3.797,1.538,7.307,2.961,11.089,4.493c0.567-1.248,0.985-2.17,1.543-3.397c-2.918-1.091-5.5-1.982-8.021-3.021
	C428.007,256.377,426.681,256.819,425.236,259.06z M480.625,232.521c-2.861-1.094-5.486-2.158-8.157-3.095
	c-1.682-0.59-2.848,0.194-3.95,1.985c3.039,1.252,5.822,2.469,8.659,3.544C479.401,235.799,479.546,235.65,480.625,232.521z
	 M522.035,206.069c-2.98-1.118-5.425-2.113-7.922-2.943c-1.584-0.527-3.018-0.286-3.971,1.978c3.454,1.348,6.762,2.639,10.283,4.013
	C520.996,208.036,521.431,207.213,522.035,206.069z M481.561,222.316c-2.67,1.909-5.404,2.603-7.325,5.436
	c2.562,0.835,4.78,1.559,7.325,2.39C481.561,227.461,481.561,225.219,481.561,222.316z M438.519,250.069
	c-2.808,1.236-4.882,2.46-6.552,4.49c1.795,2.086,3.953,2.78,6.552,2.968C438.519,255.089,438.519,252.843,438.519,250.069z
	 M525.44,248.973c3.636-1.463,6.273-6.061,5.321-9.21c-1.686,1.558-3.377,3.068-5.012,4.642
	C524.411,245.692,523.947,247.138,525.44,248.973z M522.676,195.997c-2.363,1.815-4.963,2.371-6.51,4.783
	c1.998,1.449,3.946,2.428,6.51,2.465C522.676,200.914,522.676,198.751,522.676,195.997z M532.298,196.555
	c-1.675,1.542-3.246,2.986-4.81,4.435c-0.16,0.148-0.298,0.327-0.424,0.507c-0.99,1.423-0.867,3.207,0.342,5.001
	C530.058,204.45,532.359,200.882,532.298,196.555z M349.301,290.181c2.697,2.718,6.15,3.23,8.272,1.76
	c0.966-0.67,1.006-1.962-0.123-2.317c-1.412-0.445-2.986-0.558-4.478-0.501C351.897,289.162,350.842,289.712,349.301,290.181z
	 M526.665,186.093c-3.178-2.297-5.129-2.312-7.51-0.23C521.748,187.693,523.907,187.807,526.665,186.093z M448.078,250.024
	c-1.492-0.685-2.361-1.098-3.242-1.484c-0.866-0.38-1.928-0.601-2.201,0.51c-0.238,0.963-0.036,2.122,0.303,3.078
	c0.083,0.232,1.552,0.206,2.234-0.069C446.038,251.709,446.751,250.984,448.078,250.024z M14.282,172.25
	c0.613-4.506-0.015-5.638-2.994-5.758C10.812,169.737,11.276,170.684,14.282,172.25z M15.348,207.92
	c-0.411,3.401,0.274,4.484,2.979,5.005C18.821,208.964,18.783,208.896,15.348,207.92z M219.027,125.689
	c1.618-0.788,2.689-1.309,3.76-1.831c-0.05-0.247-0.1-0.494-0.149-0.74c-1.264-0.312-2.527-0.624-4.278-1.057
	C218.619,123.469,218.763,124.255,219.027,125.689z M489.81,222.677c-1.761-0.443-2.864-1.801-3.99-0.325
	c-0.319,0.416-0.033,1.927,0.407,2.178C487.743,225.391,488.455,224.023,489.81,222.677z M414.841,278.579
	c-0.102,0.111-0.203,0.225-0.305,0.337c0.317,0.295,0.634,0.589,0.951,0.885c0.117-0.133,0.233-0.264,0.351-0.396
	C415.506,279.129,415.173,278.854,414.841,278.579z"/>
<path fill-rule="evenodd" clip-rule="evenodd" d="M479.484,359.235c0.109-5.832,0.207-11.664,0.334-17.494
	c0.044-2.023,1.021-3.538,2.655-4.704c10.757-7.684,21.505-15.379,32.252-23.077c2.328-1.667,4.736-3.241,6.928-5.073
	c2.392-1.998,4.723-2.293,7.618-1.073c6.399,2.696,12.899,5.155,19.365,7.692c11.905,4.672,23.826,9.302,35.71,14.025
	c2.399,0.953,4.479,0.972,6.372-0.937c0.154-0.157,0.343-0.281,0.502-0.434c2.412-2.301,4.707-2.427,7.95-0.988
	c8.051,3.571,16.387,6.499,24.606,9.694c1.438,0.56,2.837,1.231,4.297,1.724c1.779,0.601,2.377,1.905,2.275,3.591
	c-0.309,5.167-0.712,10.33-1.016,15.499c-0.155,2.64-0.306,5.292-0.225,7.932c0.116,3.746-1.375,6.597-4.261,8.862
	c-7.356,5.779-14.694,11.584-22.04,17.377c-7.174,5.655-14.385,11.264-21.491,17.002c-1.474,1.19-2.68,1.532-4.47,0.779
	c-9.96-4.187-19.958-8.284-29.955-12.38c-2.232-0.915-3.846-2.182-3.497-4.905c0.26-2.034-0.893-2.842-2.653-3.549
	c-9.311-3.736-18.567-7.605-27.842-11.435c-9.988-4.122-19.977-8.237-29.955-12.377
	C479.747,363.661,479.122,362.667,479.484,359.235z M584.84,332.861c-1.621-0.752-2.383-1.154-3.179-1.468
	c-8.618-3.389-17.237-6.776-25.864-10.141c-9.552-3.726-19.141-7.356-28.646-11.196c-1.953-0.787-3.289-0.416-4.819,0.714
	c-4.255,3.135-8.563,6.197-12.861,9.276c-7.25,5.194-14.515,10.37-21.746,15.589c-0.576,0.415-0.95,1.108-1.723,2.039
	c1.361,0.769,2.404,1.515,3.56,1.987c11.03,4.503,22.084,8.946,33.12,13.436c6.538,2.66,13.076,5.325,19.574,8.085
	c2.327,0.988,4.114,0.959,6.312-0.757c9.547-7.452,19.291-14.65,28.957-21.95C579.781,336.772,582.012,335.033,584.84,332.861z
	 M625.571,340.736c-1.199-0.624-1.836-1.031-2.525-1.302c-8.714-3.421-17.464-6.761-26.141-10.275
	c-2.086-0.846-3.548-0.248-5.13,0.941c-13.013,9.788-26.05,19.544-39.056,29.343c-1,0.753-1.816,1.751-2.976,2.887
	c1.553,0.723,2.608,1.273,3.707,1.717c7.871,3.163,15.808,6.176,23.601,9.521c3.036,1.303,5.427,1.358,7.713-1.191
	c0.721-0.804,1.736-1.34,2.607-2.015c11.744-9.087,23.488-18.176,35.229-27.267C623.45,342.439,624.281,341.763,625.571,340.736z
	 M627.932,341.676c-0.644,0.326-1.047,0.454-1.359,0.699c-5.382,4.193-10.734,8.427-16.131,12.603
	c-9.139,7.069-18.301,14.109-27.461,21.15c-1.279,0.982-2.199,2.154-2.379,3.811c-0.178,1.641-0.437,3.275-0.537,4.92
	c-0.244,3.956-0.46,7.916-0.605,11.876c-0.09,2.425-0.095,4.858-0.004,7.282c0.029,0.775,0.487,1.534,0.836,2.558
	c1.13-0.584,1.975-0.87,2.638-1.387c4.34-3.384,8.64-6.815,12.952-10.233c9.057-7.177,18.051-14.434,27.209-21.478
	c2.319-1.782,3.545-3.886,3.729-6.622c0.332-4.939,0.477-9.891,0.743-14.835c0.142-2.629,0.4-5.253,0.556-7.881
	C628.158,343.419,628.014,342.688,627.932,341.676z M482.205,343.997c-0.1,1.94-0.184,3.129-0.218,4.319
	c-0.07,2.427,0.027,4.868-0.202,7.278c-0.384,4.027,0.232,5.345,3.911,6.943c3.035,1.32,6.115,2.538,9.176,3.8
	c14.587,6.018,29.171,12.04,43.765,18.04c1.374,0.563,2.809,0.981,4.427,1.539c0.358-4.392,0.598-8.325,1.022-12.239
	c0.354-3.261-0.421-5.616-4.008-6.367c-0.84-0.177-1.588-0.767-2.404-1.098c-16.348-6.639-32.697-13.274-49.056-19.888
	C486.713,345.555,484.752,344.917,482.205,343.997z M577.193,405.689c0-2.025-0.012-3.44,0.003-4.856
	c0.02-1.654,0.034-3.309,0.1-4.961c0.168-4.174,0.348-8.346,0.557-12.518c0.078-1.545-0.654-2.49-2.008-3.073
	c-0.811-0.346-1.601-0.741-2.416-1.073c-6.733-2.746-13.466-5.498-20.213-8.212c-1.997-0.803-4.041-1.49-6.195-2.277
	c-0.342,0.956-0.632,1.445-0.68,1.956c-0.274,2.96-0.589,5.921-0.7,8.889c-0.116,3.085-0.087,6.181,0.01,9.266
	c0.085,2.728,1.133,4.696,3.97,5.823c7.369,2.93,14.618,6.163,21.939,9.215C573.164,404.535,574.875,404.948,577.193,405.689z
	 M544.711,364.435c-7.324-2.984-14.128-5.764-20.938-8.528c-6.738-2.735-13.476-5.473-20.227-8.18
	c-6.765-2.712-13.475-5.576-20.375-8.08c-0.583,1.951,0.441,2.343,1.521,2.771c5.021,1.987,10.041,3.978,15.041,6.017
	c13.577,5.537,27.144,11.101,40.718,16.646C541.668,365.577,542.912,366.046,544.711,364.435z M572.857,374.469
	c-2.006-1.048-3.797-2.123-6.194-2.207C568.688,375.479,570.286,376.068,572.857,374.469z M576.363,375.901
	c-0.562-0.236-0.986-0.577-1.24-0.477c-0.29,0.113-0.626,0.649-0.576,0.938c0.049,0.275,0.623,0.703,0.864,0.645
	C575.722,376.931,575.93,376.438,576.363,375.901z M564.058,370.456c-0.465,0.565-0.887,0.851-0.887,1.138
	c0,0.33,0.37,0.662,0.579,0.994c0.305-0.245,0.775-0.444,0.861-0.751C564.689,371.553,564.358,371.152,564.058,370.456z
	 M578.925,377.044c-0.248-0.139-0.495-0.277-0.743-0.417c-0.235,0.497-0.479,0.99-0.683,1.498c-0.011,0.025,0.458,0.294,0.476,0.273
	C578.312,377.962,578.615,377.501,578.925,377.044z M554.94,367.378c-0.323-0.264-0.542-0.587-0.775-0.599
	c-0.251-0.013-0.516,0.271-0.774,0.423c0.24,0.272,0.438,0.62,0.738,0.775C554.242,368.037,554.586,367.649,554.94,367.378z
	 M551.705,366.062c-0.337-0.265-0.563-0.581-0.775-0.571c-0.237,0.01-0.46,0.318-0.689,0.496c0.194,0.21,0.373,0.569,0.584,0.591
	C551.055,366.6,551.315,366.308,551.705,366.062z M560.524,369.398c-0.136,0.381-0.293,0.63-0.286,0.875
	c0.004,0.119,0.358,0.364,0.463,0.323c0.246-0.1,0.438-0.334,0.651-0.515C561.122,369.893,560.893,369.703,560.524,369.398z"/>
<path fill-rule="evenodd" clip-rule="evenodd" fill="#FFFFFF" d="M187.03,93.871c1.647-0.931,2.552-1.496,3.503-1.972
	c13.318-6.674,26.659-13.304,39.949-20.036c1.934-0.979,3.628-1.09,5.658-0.35c11.603,4.229,23.24,8.368,34.875,12.511
	c7.792,2.775,15.607,5.484,23.399,8.261c15.269,5.442,30.526,10.921,45.795,16.366c7.583,2.705,15.186,5.353,22.77,8.054
	c15.375,5.475,30.738,10.981,46.116,16.45c8,2.845,16.028,5.616,24.029,8.457c16.107,5.721,32.217,11.436,48.304,17.213
	c11.935,4.286,23.889,8.525,35.727,13.066c5.725,2.195,10.843,5.473,13.911,11.15c2.115,3.916,2.17,7.747-0.389,11.5
	c-0.795,1.166-1.582,2.336-3.013,4.454c-0.472-1.04-0.929-1.608-0.967-2.203c-0.2-3.108-0.847-6.286,1.768-8.907
	c1.481-1.486,1.085-3.1-0.948-4.301c-3.227-1.907-6.746-2.147-9.659,0.146c-2.071,1.632-3.651,1.356-5.729,0.592
	c-7.868-2.891-15.788-5.641-23.654-8.533c-2.57-0.944-4.744-0.838-7.167,0.714c-7.699,4.935-15.531,9.662-23.357,14.393
	c-1.407,0.85-2.023,1.898-2.009,3.485c0.028,2.649,0.016,5.301-0.042,7.949c-0.014,0.617-0.273,1.229-0.525,2.287
	c-2.125-0.742-4.062-1.372-5.965-2.092c-6.357-2.407-6.343-2.403-12.094,1.175c-7.018,4.366-14.02,8.757-21.103,13.015
	c-1.948,1.171-2.8,2.618-2.701,4.846c0.102,2.315,0.048,4.638,0.002,6.956c-0.018,0.939-0.194,1.875-0.351,3.271
	c-2.553-0.877-4.718-1.574-6.85-2.362c-7.668-2.836-6.047-2.963-12.051,0.888c-7.79,4.995-15.74,9.742-23.645,14.557
	c-1.742,1.062-2.255,2.555-2.115,4.481c0.257,3.511,0.562,7.024,0.588,10.538c0.016,2.141,0.735,3.666,2.628,4.538
	c3.999,1.844,7.998,3.698,12.064,5.385c5.807,2.407,11.676,4.66,17.512,6.998c0.81,0.324,1.573,0.764,2.925,1.428
	c-2.728,1.857-5.077,3.584-7.547,5.116c-5.151,3.196-10.284,6.464-16.189,8.163c-2.534,0.729-5.107,1.324-7.661,1.991
	c-0.954,0.249-1.912,0.497-2.852,0.8c-4.159,1.34-8.362,1.456-13.381,0.755c1.434-0.925,2.267-1.364,2.985-1.946
	c1.632-1.319,1.68-3.054,0.201-4.545c-2.53-2.552-9.209-2.339-11.57,0.365c-1.356,1.556-1.178,3.404,0.566,4.525
	c0.992,0.639,2.13,1.052,3.712,1.81c-1.093,0.474-1.724,0.978-2.36,0.985c-2.621,0.033-5.23,0.403-7.875-0.343
	c-1.524-0.43-3.286,0.067-4.902-0.145c-8.347-1.095-16.467-3.022-24.235-6.399c-6.874-2.987-13.864-5.702-20.783-8.586
	c-7.123-2.971-14.212-6.02-21.331-8.998c-10.575-4.427-21.163-8.823-31.746-13.231c-13.439-5.599-26.873-11.208-40.317-16.791
	c-11.816-4.907-23.651-9.769-35.466-14.677c-14.059-5.841-28.105-11.711-42.157-17.567c-10.59-4.414-21.183-8.819-31.77-13.239
	c-9.671-4.038-19.325-8.116-29.007-12.125c-13.349-5.53-26.729-10.987-40.07-16.537c-2.64-1.098-5.265-2.305-7.715-3.766
	c-3.336-1.99-3.736-5.556-1.033-8.362c1.21-1.257,2.571-2.513,4.106-3.289c6.691-3.381,13.476-6.577,20.217-9.861
	c1.743-0.849,3.254,0.036,4.751,0.629c5.125,2.034,10.177,4.25,15.32,6.235c8.55,3.301,5.364,3.438,13.438-0.49
	c4.961-2.414,9.883-4.91,14.807-7.398c4.158-2.1,7.107-7.774,6.479-12.38c-0.363-2.666-0.363-2.666,0.341-4.575
	c1.116,0.37,2.261,0.692,3.364,1.125c15.913,6.241,31.815,12.506,47.729,18.743c7.905,3.098,15.835,6.133,23.737,9.239
	c1.627,0.64,2.994,0.685,4.662-0.207c7.583-4.06,15.281-7.905,22.904-11.89c13.092-6.844,26.165-13.728,39.23-20.624
	c0.889-0.47,1.649-1.187,3.147-2.287c-2.811-1.221-4.846-2.169-6.931-2.993c-2.461-0.973-4.927-1.962-7.46-2.71
	c-2.289-0.677-3.758-1.985-3.857-4.36c-0.096-2.293-1.456-3.312-3.318-4.003c-7.553-2.801-15.117-5.574-22.662-8.397
	C190.341,95.482,189.032,94.786,187.03,93.871z M267.001,234.444c-0.319,3.13,1.016,4.303,3.296,5.128
	c4.138,1.498,8.199,3.225,12.219,5.018c2.05,0.914,3.738,0.626,5.592-0.491c8.954-5.389,17.959-10.694,26.937-16.044
	c1.51-0.899,3.087-1.736,4.438-2.84c1.839-1.501,1.789-3.404-0.208-4.546c-2.346-1.341-3.065-3.219-2.973-5.762
	c0.113-3.083-0.07-6.176,0.041-9.259c0.126-3.534-1.848-5.402-4.773-6.771c-3.546-1.661-7.043-1.604-10.504,0.078
	c-2.865,1.393-5.707,2.85-8.477,4.422c-5.548,3.151-11.034,6.41-16.557,9.605c-2.098,1.214-3.206,2.9-2.993,5.415
	c0.25,2.951,0.313,5.919,0.59,8.867c0.247,2.621-0.1,3.372-2.554,4.748C269.654,232.809,268.273,233.681,267.001,234.444z
	 M340.384,219.752c-0.424,0.223-0.912,0.457-1.378,0.728c-1.616,0.939-3.23,1.885-4.838,2.839
	c-5.865,3.48-11.739,6.944-17.584,10.457c-1.699,1.022-2.321,2.753-1.376,4.117c0.514,0.74,1.464,1.298,2.334,1.654
	c8.053,3.287,16.172,6.412,24.176,9.813c2.735,1.163,4.919,0.974,7.39-0.615c6.198-3.982,12.52-7.772,18.808-11.616
	c1.511-0.924,3.244-1.676,3.135-3.837c-0.116-2.263-2.133-2.638-3.687-3.257c-7.676-3.058-15.387-6.026-23.094-9.001
	C343.04,220.56,341.765,220.204,340.384,219.752z M407.341,210.2c3.558-0.026,5.032-0.68,9.247-3.667
	c2.911-2.062,2.654-6.002-0.594-7.611c-1.763-0.874-3.744-1.311-5.5-2.196c-3.258-1.644-6.34-1.432-9.399,0.413
	c-1.409,0.85-2.886,1.602-4.223,2.553c-1.779,1.266-1.89,5.708,0.008,6.673C400.479,208.193,404.246,209.718,407.341,210.2z
	 M315.603,255.959c-0.219,2.075,0.382,3.026,1.646,3.555c2.431,1.016,4.84,2.087,7.316,2.974c0.738,0.264,1.811,0.256,2.486-0.095
	c1.94-1.008,3.841-2.141,5.6-3.438c2.105-1.551,1.93-4.077-0.337-5.324c-1.627-0.896-3.417-1.486-5.094-2.301
	c-2.109-1.026-4.075-1.26-6.09,0.316c-1.201,0.938-2.695,1.496-3.911,2.419C316.422,254.67,315.884,255.617,315.603,255.959z
	 M63.184,183.143c2.804-0.471,5.252-0.554,6.934-2.696c0.921-1.174,0.817-2.164-0.209-3.176c-2.681-2.645-9.47-1.875-11.54,1.323
	c-0.893,1.38-0.693,2.481,0.861,3.212C60.592,182.448,62.097,182.787,63.184,183.143z"/>
<path fill-rule="evenodd" clip-rule="evenodd" fill="#FFFFFF" d="M79.471,202.605c3.828,1.564,6.97,2.819,10.089,4.13
	c15.552,6.531,31.085,13.107,46.649,19.609c13.834,5.781,27.715,11.447,41.545,17.236c14.543,6.086,29.041,12.281,43.578,18.383
	c12.706,5.334,25.446,10.586,38.156,15.91c13.118,5.493,26.193,11.092,39.336,16.524c7.74,3.198,15.56,6.205,23.375,9.218
	c3.144,1.213,3.779,1.82,3.831,5.292c0.077,5.189-0.019,10.379,0.056,15.567c0.027,1.97,0.352,3.934,0.479,5.904
	c0.047,0.72-0.087,1.452-0.167,2.552c-2.333-0.854-4.406-1.509-6.396-2.356c-12.17-5.182-24.328-10.39-36.476-15.623
	c-11.035-4.754-22.043-9.569-33.078-14.325c-8.604-3.706-17.228-7.363-25.844-11.041c-9.43-4.024-18.862-8.047-28.292-12.072
	c-13.798-5.89-27.6-11.771-41.391-17.678c-10.444-4.474-20.87-8.99-31.311-13.473c-12.366-5.311-24.693-10.716-37.137-15.84
	c-3.743-1.542-5.654-3.877-5.939-7.837c-0.388-5.384-0.944-10.756-1.36-16.138C79.095,205.498,79.325,204.423,79.471,202.605z"/>
<path fill-rule="evenodd" clip-rule="evenodd" fill="#FFFFFF" d="M212.649,106.875c-1.519,0.868-2.423,1.433-3.369,1.918
	c-10.891,5.586-21.793,11.149-32.682,16.742c-5.196,2.669-10.417,5.299-15.529,8.123c-2.442,1.349-4.699,1.441-7.25,0.429
	c-8.099-3.214-16.238-6.332-24.372-9.46c-12.971-4.988-25.97-9.905-38.911-14.971c-2.81-1.1-5.797-2.003-8.494-4.427
	c1.285-0.707,2.286-1.311,3.331-1.825c12.368-6.088,24.733-12.178,37.117-18.232c4.059-1.984,8.198-3.805,12.236-5.828
	c1.602-0.803,3.037-0.941,4.723-0.306c12.687,4.782,25.387,9.526,38.098,14.243c8.991,3.336,18.007,6.607,27.008,9.915
	c1.966,0.723,3.931,1.451,5.871,2.237C210.993,105.66,211.473,106.099,212.649,106.875z"/>
<path fill-rule="evenodd" clip-rule="evenodd" fill="#FFFFFF" d="M348.158,311.594c14.964,6.247,29.661,12.383,44.83,18.715
	c-1.017,0.695-1.58,1.151-2.204,1.498c-9.405,5.232-19.527,8.523-30.231,8.682c-9.983,0.147-20.128,1.29-29.975-1.355
	c-5.63-1.514-11.238-3.283-16.618-5.513c-13.955-5.78-27.781-11.872-41.652-17.854c-13.575-5.855-27.128-11.759-40.716-17.585
	c-11.658-4.999-23.361-9.891-35.022-14.881c-11.25-4.813-22.461-9.715-33.708-14.536c-8.914-3.822-17.868-7.551-26.779-11.378
	c-4.762-2.045-9.449-4.265-14.208-6.317c-9.112-3.93-18.258-7.778-27.375-11.696c-12.058-5.181-24.092-10.416-36.153-15.587
	c-10.44-4.477-20.91-8.885-31.355-13.351c-2.835-1.213-5.744-2.323-8.419-3.834c-5.766-3.258-6.034-8.35-0.381-11.759
	c5.653-3.409,11.683-6.19,17.528-9.282c1.623-0.858,3.035-0.077,4.426,0.486c3.986,1.61,7.924,3.338,11.889,5.003
	c7.319,3.074,14.61,6.22,21.987,9.15c2.219,0.882,2.824,2.145,2.969,4.439c0.49,7.788,1.297,15.554,1.95,23.333
	c0.121,1.444,1.031,2.099,2.204,2.601c6.286,2.686,12.569,5.378,18.853,8.068c10.136,4.336,20.272,8.672,30.409,13.006
	s20.278,8.657,30.411,12.999c9.932,4.254,19.851,8.539,29.786,12.787c9.63,4.117,19.279,8.192,28.911,12.307
	c10.038,4.287,20.064,8.602,30.098,12.898c10.135,4.339,20.276,8.663,30.41,13.005c9.932,4.255,19.859,8.522,29.786,12.791
	c5.064,2.179,10.127,4.357,15.177,6.571c1.732,0.759,3.252,0.806,4.94-0.35c4.819-3.296,9.622-6.656,14.68-9.556
	c3.327-1.907,3.89-4.469,3.325-7.76C347.635,315.613,347.132,313.898,348.158,311.594z M354.675,339.801
	c2.78-0.102,4.875-1.112,6.481-3.158c0.84-1.068,1.019-2.311-0.092-3.25c-3.371-2.851-8.871-2.96-11.747,0.071
	c-1.629,1.715-1.574,3.396,0.516,4.581C351.306,338.879,353.051,339.232,354.675,339.801z M67.377,224.823
	c0.046,0.125,0.093,0.25,0.14,0.375c1.733-0.565,3.659-0.822,5.153-1.765c2.309-1.456,1.951-4.222-0.592-5.111
	c-3.065-1.071-6.153-0.783-8.809,1.182c-0.74,0.549-1.49,1.989-1.263,2.718c0.301,0.964,1.443,1.857,2.438,2.354
	C65.26,224.982,66.388,224.765,67.377,224.823z"/>
<path fill-rule="evenodd" clip-rule="evenodd" fill="#FFFFFF" d="M453.044,290.28c-1.685-1.694-1.525-3.399-1.531-5.035
	c-0.021-7.171,0.322-14.365-0.151-21.504c-0.245-3.69,1.055-5.554,3.948-7.3c7.445-4.489,14.807-9.125,22.107-13.846
	c5.817-3.764,11.434-7.836,17.252-11.596c7.668-4.956,15.463-9.714,23.162-14.623c1.167-0.745,2.149-0.922,3.352-0.23
	c3.391,1.947,6.347,4.323,8.379,7.756c3.463,5.85,2.677,11.836-2.461,16.758c-1.817,1.741-3.823,3.336-5.915,4.739
	c-15.003,10.068-30.038,20.087-45.089,30.083c-6.882,4.57-13.814,9.061-20.736,13.569
	C454.652,289.514,453.863,289.851,453.044,290.28z M522.943,232.138c0.982-0.398,2.686-0.877,4.16-1.743
	c1.907-1.12,1.934-2.386,0.398-3.996c-3.131-3.287-7.705-3.228-10.874,0.094c-1.041,1.091-1.017,2.068-0.055,3.181
	C518.064,231.401,520.043,231.896,522.943,232.138z"/>
<path fill-rule="evenodd" clip-rule="evenodd" fill="#FFFFFF" d="M18.01,169.062c3.536,1.388,6.929,2.656,10.272,4.043
	c9.981,4.145,19.941,8.339,29.912,12.507c11.7,4.892,23.399,9.782,35.105,14.661c9.466,3.945,18.941,7.87,28.41,11.811
	c12.93,5.38,25.856,10.767,38.787,16.145c9.368,3.896,18.744,7.771,28.108,11.674c11.807,4.921,23.602,9.871,35.411,14.786
	c7.84,3.263,15.704,6.468,23.543,9.73c11.81,4.913,23.604,9.863,35.412,14.781c9.467,3.943,18.932,7.893,28.423,11.779
	c4.298,1.76,4.533,2.081,3.63,7.395c-1.339-0.389-2.69-0.645-3.932-1.162c-7.835-3.269-15.642-6.607-23.467-9.899
	c-11.49-4.833-22.983-9.659-34.484-14.466c-15.37-6.421-30.75-12.816-46.124-19.228c-13.843-5.772-27.696-11.521-41.522-17.334
	c-14.441-6.072-28.843-12.235-43.286-18.303c-8.745-3.673-17.548-7.206-26.3-10.861c-12.315-5.145-24.605-10.352-36.912-15.52
	c-13.121-5.51-26.249-11.002-39.369-16.514C16.508,173.777,16.174,172.738,18.01,169.062z"/>
<path fill-rule="evenodd" clip-rule="evenodd" fill="#FFFFFF" d="M316.251,342.903c-2.398-1-4.524-1.852-6.624-2.767
	c-10.612-4.625-21.203-9.3-31.83-13.892c-7.183-3.104-14.424-6.069-21.614-9.159c-5.471-2.35-10.885-4.832-16.352-7.191
	c-11.035-4.767-22.102-9.457-33.13-14.237c-9.103-3.945-18.15-8.016-27.255-11.954c-7.08-3.063-14.225-5.975-21.314-9.018
	c-5.471-2.349-10.885-4.832-16.352-7.192c-11.035-4.766-22.103-9.457-33.131-14.237c-9.102-3.945-18.151-8.015-27.255-11.953
	c-7.08-3.063-14.223-5.979-21.313-9.018c-5.168-2.216-10.292-4.535-15.445-6.787c-6.366-2.78-12.76-5.497-19.098-8.338
	c-1.378-0.618-2.776-1.466-3.766-2.568c-0.563-0.627-0.698-2.148-0.341-2.967c0.477-1.093,1.69-0.612,2.633-0.206
	c7.999,3.445,15.999,6.885,24,10.326c12.253,5.269,24.507,10.534,36.758,15.806c11.544,4.967,23.083,9.945,34.628,14.91
	c12.05,5.181,24.106,10.35,36.158,15.528c9.927,4.265,19.849,8.538,29.773,12.806c10.633,4.571,21.269,9.138,31.901,13.714
	c11.645,5.011,23.279,10.046,34.931,15.041c8.51,3.647,17.052,7.22,25.558,10.879c8.81,3.789,17.592,7.646,26.39,11.465
	c3.034,1.316,6.101,2.558,9.114,3.92C317.23,337.603,317.314,337.854,316.251,342.903z"/>
<path fill-rule="evenodd" clip-rule="evenodd" fill="#FFFFFF" d="M438.647,244.554c-1.113,0.837-1.919,1.53-2.806,2.095
	c-6.88,4.378-13.856,8.61-20.623,13.157c-2.436,1.637-4.661,1.739-7.152,0.752c-10.257-4.064-20.509-8.14-30.742-12.261
	c-1.277-0.515-2.438-1.318-4.191-2.285c1.389-1.068,2.249-1.858,3.226-2.461c7.124-4.398,14.294-8.727,21.395-13.163
	c1.358-0.849,2.524-1.021,4.018-0.437c11.706,4.58,23.436,9.099,35.153,13.648C437.406,243.787,437.839,244.101,438.647,244.554z"/>
<path fill-rule="evenodd" clip-rule="evenodd" fill="#FFFFFF" d="M214.725,108.463c0.324,0.407,0.445,0.487,0.45,0.575
	c0.302,5.261,0.571,10.524,0.901,15.784c0.111,1.775-0.611,2.805-2.207,3.624c-9.404,4.829-18.765,9.745-28.131,14.648
	c-4.195,2.196-8.461,4.279-12.522,6.704c-3.15,1.882-6.072,1.971-9.387,0.535c-2.69-1.166-5.063-2.276-4.721-5.79
	c0.031-0.316-0.121-0.647-0.174-0.974c-0.977-5.928-0.75-6.317,4.499-8.98c10.906-5.535,21.801-11.09,32.685-16.669
	c5.391-2.764,10.741-5.605,16.12-8.393C213.008,109.129,213.835,108.841,214.725,108.463z"/>
<path fill-rule="evenodd" clip-rule="evenodd" fill="#FFFFFF" d="M481.941,217.114c-3.901,2.496-7.21,4.627-10.535,6.733
	c-4.558,2.89-9.171,5.696-13.67,8.677c-1.504,0.998-2.842,0.919-4.355,0.331c-10.689-4.154-21.387-8.289-32.068-12.462
	c-1.064-0.416-2.043-1.046-3.41-1.759c0.915-0.871,1.373-1.483,1.979-1.858c7.114-4.407,14.27-8.748,21.365-13.184
	c1.655-1.035,3.156-0.611,4.729-0.033c6.309,2.321,12.619,4.636,18.917,6.985c4.854,1.809,9.691,3.662,14.532,5.502
	C480.024,216.275,480.61,216.548,481.941,217.114z"/>
<path fill-rule="evenodd" clip-rule="evenodd" fill="#FFFFFF" d="M461.027,191.586c1.178-0.817,2.035-1.469,2.947-2.034
	c6.174-3.827,12.389-7.59,18.52-11.485c1.477-0.938,2.774-1.011,4.345-0.438c6.727,2.454,13.479,4.836,20.215,7.258
	c4.25,1.528,8.492,3.076,12.733,4.626c0.896,0.328,1.771,0.712,3.14,1.268c-1.218,0.92-2.013,1.615-2.893,2.173
	c-6.32,4.01-12.697,7.932-18.966,12.021c-1.828,1.192-3.357,1.506-5.497,0.688c-9.37-3.582-18.83-6.924-28.229-10.43
	C465.214,194.44,462.936,193.799,461.027,191.586z"/>
<path fill-rule="evenodd" clip-rule="evenodd" fill="#FFFFFF" d="M85.466,118.367c-1.588,0.973-2.366,1.54-3.217,1.957
	c-7.527,3.682-15.073,7.326-22.599,11.011c-1.255,0.615-2.46,0.849-3.806,0.312c-8.912-3.56-17.834-7.094-26.747-10.652
	c-0.498-0.199-0.937-0.542-1.611-0.941c0.344-0.428,0.524-0.866,0.842-1.018c8.444-4.049,16.908-8.062,25.356-12.105
	c1.194-0.571,2.25-0.447,3.467,0.037c8.299,3.292,16.631,6.501,24.944,9.759C82.98,117.072,83.812,117.556,85.466,118.367z"/>
<path fill-rule="evenodd" clip-rule="evenodd" fill="#FFFFFF" d="M395.989,336.822c-2.104-3.294-1.922-4.379,0.648-6.09
	c17.427-11.602,34.862-23.189,52.272-34.815c7.511-5.017,14.938-10.162,22.457-15.166c15.775-10.499,31.586-20.944,47.388-31.404
	c0.897-0.595,1.837-1.124,2.794-1.704c1.252,4.018,0.982,4.85-2.211,6.978c-26.593,17.728-53.201,35.432-79.78,53.181
	c-13.195,8.812-26.336,17.709-39.51,26.552C398.791,335.196,397.463,335.93,395.989,336.822z"/>
<path fill-rule="evenodd" clip-rule="evenodd" fill="#FFFFFF" d="M444.785,292.279c-1.188,0.928-1.824,1.494-2.524,1.962
	c-13.296,8.88-26.601,17.749-39.902,26.622c-0.274,0.183-0.523,0.41-0.811,0.572c-2.163,1.227-3.49,0.705-3.589-1.788
	c-0.194-4.851-0.161-9.715-0.01-14.568c0.027-0.894,0.85-2.058,1.645-2.589c8.245-5.515,16.557-10.93,24.86-16.358
	c1.023-0.668,2.075-1.221,3.4-0.681C433.254,287.655,438.668,289.817,444.785,292.279z"/>
<path fill-rule="evenodd" clip-rule="evenodd" fill="#FFFFFF" d="M156.813,146.573c-2.431,0.527-4.165-0.694-5.939-1.375
	c-12.649-4.854-25.26-9.812-37.875-14.756c-6.258-2.452-12.504-4.936-18.746-7.429c-2.13-0.851-3.863-2.185-4.52-4.494
	c-0.347-1.221-1.147-1.773-2.253-2.16c-1.559-0.547-3.144-1.071-4.607-1.82c-1.048-0.537-2.013-1.331-2.839-2.181
	c-0.93-0.957-1.202-2.336-0.209-3.263c0.512-0.477,1.86-0.459,2.65-0.172c5.172,1.882,10.297,3.895,15.434,5.873
	c14.897,5.738,29.795,11.476,44.688,17.224c3.904,1.506,7.773,3.105,11.699,4.549c1.453,0.535,2.116,1.354,2.146,2.901
	C156.489,141.826,156.681,144.178,156.813,146.573z"/>
<path fill-rule="evenodd" clip-rule="evenodd" fill="#FFFFFF" d="M393.639,328.247c-14.806-6.207-29.507-12.362-44.194-18.555
	c-0.542-0.228-0.935-0.812-1.845-1.637c1.349-0.203,2.151-0.423,2.955-0.43c8.174-0.069,16.206-1.213,24.112-3.231
	c5.016-1.28,9.907-2.919,14.39-5.602c0.753-0.451,1.544-0.883,2.373-1.149c1.779-0.574,2.833,0.078,2.836,1.994
	c0.011,9.256-0.082,18.51-0.146,27.765C394.12,327.498,394.017,327.593,393.639,328.247z"/>
<path fill-rule="evenodd" clip-rule="evenodd" fill="#FFFFFF" d="M410.848,276.628c-1.474-0.382-2.425-0.526-3.298-0.87
	c-11.059-4.355-22.102-8.753-33.161-13.106c-1.949-0.767-3.063-1.973-3.064-4.178c-0.001-2.859-0.16-5.718-0.212-8.577
	c-0.004-0.282,0.271-0.569,0.535-1.089c0.917,0.224,1.888,0.346,2.767,0.694c11.15,4.407,22.256,8.931,33.452,13.218
	c2.426,0.929,3.169,2.26,3.043,4.666C410.752,270.311,410.857,273.25,410.848,276.628z"/>
<path fill-rule="evenodd" clip-rule="evenodd" fill="#FFFFFF" d="M87.91,120.008c0.122,1.737,0.212,2.805,0.269,3.875
	c0.065,1.21-0.176,2.516,0.199,3.615c1.201,3.526-0.042,6.513-1.803,9.387c-0.546,0.89-1.361,1.784-2.271,2.254
	c-6.27,3.235-12.58,6.394-18.914,9.501c-2.75,1.35-4.872,0.406-5.415-2.597c-0.625-3.457-0.898-6.979-1.25-10.481
	c-0.127-1.276,0.759-1.984,1.811-2.505c1.778-0.881,3.537-1.801,5.322-2.667c6.246-3.027,12.495-6.045,18.752-9.047
	C85.472,120.929,86.384,120.621,87.91,120.008z"/>
<path fill-rule="evenodd" clip-rule="evenodd" fill="#FFFFFF" d="M391.655,289.026c0,1.417-0.073,2.595,0.018,3.76
	c0.141,1.787-0.691,2.772-2.205,3.655c-4.817,2.81-10.011,4.595-15.379,5.91c-8.938,2.192-18.043,3.274-27.223,2.991
	c-8.604-0.265-17.172-1.187-25.318-4.329c-4.231-1.631-4.421-2.015-3.3-7.005C343.13,301.225,367.581,300.646,391.655,289.026z"/>
<path fill-rule="evenodd" clip-rule="evenodd" fill="#FFFFFF" d="M454.545,248.268c-1.655-0.517-2.604-0.739-3.496-1.104
	c-6.613-2.692-13.205-5.441-19.827-8.112c-3.575-1.443-7.203-2.756-10.799-4.153c-4.408-1.711-4.683-2.118-4.698-6.754
	c-0.006-1.323-0.056-2.652,0.045-3.968c0.188-2.444,0.878-2.947,3.172-2.214c2.201,0.703,4.364,1.531,6.522,2.359
	c8.431,3.235,16.854,6.487,25.273,9.748c0.923,0.357,1.874,0.708,2.692,1.243c0.491,0.321,1.054,0.985,1.067,1.507
	C454.589,240.424,454.545,244.032,454.545,248.268z"/>
<path fill-rule="evenodd" clip-rule="evenodd" fill="#FFFFFF" d="M458.799,194.506c4.553,1.619,8.902,3.118,13.218,4.708
	c7.227,2.665,14.426,5.403,21.647,8.079c3.256,1.206,3.322,1.23,3.349,4.729c0.021,2.825,0.004,5.651,0.004,8.728
	c-1.24-0.14-2.054-0.048-2.695-0.335c-3.39-1.517-6.71-3.194-10.109-4.69c-3.018-1.33-6.087-2.548-9.172-3.719
	c-4.219-1.601-8.461-3.143-12.713-4.65c-3.921-1.391-4.189-1.701-4.192-5.94c-0.002-1.871,0.044-3.744,0.111-5.614
	C458.257,195.5,458.491,195.206,458.799,194.506z"/>
<path fill-rule="evenodd" clip-rule="evenodd" fill="#FFFFFF" d="M392.15,333.596c0.073,1.532,0.096,2.511,0.172,3.484
	c0.118,1.484-0.543,2.384-1.781,3.232c-4.467,3.064-9.605,4.432-14.667,5.933c-8.732,2.591-17.719,3.766-26.806,3.484
	c-5.326-0.166-10.67-0.853-15.928-1.766c-3.99-0.693-7.858-2.1-11.773-3.221c-1.562-0.448-2.362-1.491-2.354-3.174
	c0.014-2.253,0.866-2.927,3.081-2.38c4.166,1.029,8.314,2.15,12.516,3.019c2.79,0.576,5.647,0.983,8.49,1.119
	c12.868,0.615,25.561-0.391,37.787-4.791c2.884-1.037,5.611-2.505,8.416-3.761C390.083,334.426,390.881,334.119,392.15,333.596z"/>
<path fill-rule="evenodd" clip-rule="evenodd" fill="#FFFFFF" d="M328.26,305.424c1.291,0.186,2.37,0.349,3.45,0.493
	c2.601,0.35,5.2,0.701,7.802,1.028c0.653,0.082,1.344-0.03,1.973,0.124c4.09,1.013,3.704,0.645,3.816,4.37
	c0.065,2.186,0.28,4.373,0.543,6.544c0.285,2.355-0.046,4.198-2.402,5.559c-3.801,2.192-7.397,4.741-11.113,7.085
	c-1.771,1.117-2.794,0.823-3.489-1.158c-0.425-1.212-0.544-2.579-0.555-3.878C328.232,319,328.26,312.408,328.26,305.424z"/>
<path fill-rule="evenodd" clip-rule="evenodd" fill="#FFFFFF" d="M25.837,122.35c2.794,0.985,5.282,1.781,7.708,2.734
	c6.555,2.572,13.071,5.243,19.63,7.805c1.991,0.778,3.39,1.748,3.447,4.196c0.068,2.908,0.48,5.809,0.789,9.207
	c-2.09-0.81-3.708-1.416-5.309-2.06c-6.632-2.67-13.261-5.348-19.886-8.035c-0.917-0.373-1.824-0.78-2.706-1.228
	c-1.867-0.946-3.099-2.347-3.485-4.507C25.58,127.967,25.148,125.5,25.837,122.35z"/>
<path fill-rule="evenodd" clip-rule="evenodd" fill="#FFFFFF" d="M442.992,267.642c0.753,2.559,0.098,4.048-1.891,5.34
	c-13.408,8.701-26.753,17.5-40.125,26.258c-0.533,0.348-1.129,0.6-1.662,0.88c-1.757-2.172-1.854-2.844-0.118-4.095
	c2.409-1.737,4.983-3.246,7.472-4.876c6.547-4.287,13.082-8.594,19.629-12.881c5.071-3.322,10.15-6.629,15.235-9.931
	C441.885,268.107,442.298,267.968,442.992,267.642z"/>
<path fill-rule="evenodd" clip-rule="evenodd" fill="#FFFFFF" d="M434.737,265.345c-5.663,3.665-10.617,6.95-15.654,10.097
	c-2.125,1.327-3.668,0.538-3.891-2.002c-0.212-2.41-0.152-4.858,0.001-7.275c0.048-0.765,0.62-1.68,1.232-2.187
	c1.268-1.048,2.649-2.026,4.13-2.721c0.909-0.428,2.22-0.644,3.127-0.323C427.191,262.177,430.611,263.672,434.737,265.345z"/>
<path fill-rule="evenodd" clip-rule="evenodd" fill="#FFFFFF" d="M476.641,237.206c-2.057,2.636-13.91,10.363-16.685,11.109
	c-0.31-0.493-0.918-1.02-0.938-1.566c-0.108-2.971-0.193-5.953-0.007-8.913c0.051-0.81,0.923-1.755,1.665-2.302
	c3.859-2.837,4.118-2.866,8.679-1.229C471.699,235.146,473.989,236.144,476.641,237.206z"/>
<path fill-rule="evenodd" clip-rule="evenodd" fill="#FFFFFF" d="M429.933,282.894c4.979-3.659,10.091-6.943,15.282-10.246
	c0.98,2.589,1.084,13.705,0.266,16.77C442.706,289.41,432.424,285.209,429.933,282.894z"/>
<path fill-rule="evenodd" clip-rule="evenodd" fill="#FFFFFF" d="M518.205,211.153c-1.333,0.986-2.412,1.864-3.568,2.622
	c-3.032,1.989-6.096,3.929-9.152,5.88c-0.556,0.354-1.106,0.736-1.709,0.992c-1.41,0.6-2.334,0.275-2.404-1.124
	c-0.152-2.958-0.28-5.961,0.066-8.888c0.282-2.387,4.748-4.399,7.072-3.537c2.783,1.033,5.568,2.056,8.341,3.114
	C517.226,210.356,517.531,210.677,518.205,211.153z"/>
<path fill-rule="evenodd" clip-rule="evenodd" fill="#FFFFFF" d="M412.497,281.812c-5.963,3.891-11.493,7.501-16.99,11.089
	c-2.459-2.729-2.183-5.192,0.525-6.914c2.404-1.528,4.788-3.088,7.173-4.647C407.13,278.77,407.371,278.767,412.497,281.812z"/>
<path fill-rule="evenodd" clip-rule="evenodd" fill="#FFFFFF" d="M456.385,253.501c-4.477,2.869-8.757,5.612-13.107,8.401
	c-1.614-4.52-1.398-5.22,2.096-7.572c0.547-0.368,1.155-0.674,1.622-1.125C450.045,250.271,453.021,250.984,456.385,253.501z"/>
<path fill-rule="evenodd" clip-rule="evenodd" fill="#FFFFFF" d="M497.75,226.502c-3.311,2.22-6.518,4.452-9.816,6.537
	c-1.124,0.71-2.169,0.145-2.456-1.191c-0.328-1.542-0.384-3.098,1.192-4.117c1.562-1.008,3.078-2.113,4.729-2.951
	C493.636,223.644,495.308,224.124,497.75,226.502z"/>
<path fill-rule="evenodd" clip-rule="evenodd" fill="#FFFFFF" d="M230.93,118.739c-2.658,2.565-4.855,3.583-7.682,2.324
	c-0.899-0.401-1.993-0.514-2.731-1.097c-0.976-0.771-1.992-1.75-2.449-2.862c-0.77-1.873,0.357-2.992,2.309-2.396
	C223.792,115.75,227.129,117.015,230.93,118.739z"/>
<path fill-rule="evenodd" clip-rule="evenodd" fill="#FFFFFF" d="M425.236,259.06c1.444-2.24,2.771-2.683,4.611-1.925
	c2.521,1.038,5.103,1.93,8.021,3.021c-0.558,1.228-0.976,2.149-1.543,3.397C432.543,262.021,429.033,260.598,425.236,259.06z"/>
<path fill-rule="evenodd" clip-rule="evenodd" fill="#FFFFFF" d="M480.625,232.521c-1.079,3.128-1.224,3.277-3.448,2.434
	c-2.837-1.075-5.62-2.292-8.659-3.544c1.103-1.792,2.269-2.576,3.95-1.985C475.139,230.363,477.764,231.428,480.625,232.521z"/>
<path fill-rule="evenodd" clip-rule="evenodd" fill="#FFFFFF" d="M522.035,206.069c-0.604,1.144-1.039,1.967-1.609,3.048
	c-3.521-1.374-6.829-2.665-10.283-4.013c0.953-2.264,2.387-2.505,3.971-1.978C516.61,203.956,519.055,204.951,522.035,206.069z"/>
<path fill-rule="evenodd" clip-rule="evenodd" fill="#FFFFFF" d="M481.561,222.316c0,2.902,0,5.145,0,7.826
	c-2.545-0.831-4.764-1.555-7.325-2.39C476.156,224.919,478.891,224.225,481.561,222.316z"/>
<path fill-rule="evenodd" clip-rule="evenodd" fill="#FFFFFF" d="M438.519,250.069c0,2.773,0,5.02,0,7.458
	c-2.599-0.188-4.757-0.882-6.552-2.968C433.637,252.529,435.711,251.306,438.519,250.069z"/>
<path fill-rule="evenodd" clip-rule="evenodd" fill="#FFFFFF" d="M525.44,248.973c-1.493-1.835-1.029-3.28,0.31-4.568
	c1.635-1.573,3.326-3.084,5.012-4.642C531.714,242.912,529.076,247.51,525.44,248.973z"/>
<path fill-rule="evenodd" clip-rule="evenodd" fill="#FFFFFF" d="M522.676,195.997c0,2.754,0,4.917,0,7.249
	c-2.563-0.038-4.512-1.016-6.51-2.465C517.713,198.368,520.312,197.812,522.676,195.997z"/>
<path fill-rule="evenodd" clip-rule="evenodd" fill="#FFFFFF" d="M532.298,196.555c0.062,4.328-2.24,7.896-4.892,9.943
	c-1.209-1.795-1.332-3.579-0.342-5.001c0.126-0.18,0.264-0.358,0.424-0.507C529.052,199.541,530.623,198.097,532.298,196.555z"/>
<path fill-rule="evenodd" clip-rule="evenodd" fill="#FFFFFF" d="M349.301,290.181c1.541-0.469,2.597-1.019,3.672-1.059
	c1.491-0.057,3.065,0.056,4.478,0.501c1.129,0.355,1.089,1.647,0.123,2.317C355.451,293.411,351.998,292.898,349.301,290.181z"/>
<path fill-rule="evenodd" clip-rule="evenodd" fill="#FFFFFF" d="M526.665,186.093c-2.758,1.714-4.917,1.601-7.51-0.23
	C521.536,183.781,523.487,183.795,526.665,186.093z"/>
<path fill-rule="evenodd" clip-rule="evenodd" fill="#FFFFFF" d="M448.078,250.024c-1.327,0.96-2.04,1.685-2.906,2.034
	c-0.683,0.275-2.151,0.302-2.234,0.069c-0.339-0.956-0.541-2.115-0.303-3.078c0.273-1.11,1.335-0.89,2.201-0.51
	C445.717,248.927,446.586,249.34,448.078,250.024z"/>
<path fill-rule="evenodd" clip-rule="evenodd" fill="#FFFFFF" d="M14.282,172.25c-3.006-1.566-3.471-2.513-2.994-5.758
	C14.267,166.612,14.896,167.744,14.282,172.25z"/>
<path fill-rule="evenodd" clip-rule="evenodd" fill="#FFFFFF" d="M15.348,207.92c3.435,0.976,3.473,1.044,2.979,5.005
	C15.623,212.404,14.937,211.321,15.348,207.92z"/>
<path fill-rule="evenodd" clip-rule="evenodd" fill="#FFFFFF" d="M219.027,125.689c-0.264-1.434-0.409-2.22-0.667-3.628
	c1.751,0.433,3.014,0.746,4.278,1.057c0.05,0.247,0.099,0.494,0.149,0.74C221.716,124.38,220.646,124.901,219.027,125.689z"/>
<path fill-rule="evenodd" clip-rule="evenodd" fill="#FFFFFF" d="M489.81,222.677c-1.354,1.347-2.066,2.714-3.583,1.853
	c-0.44-0.25-0.727-1.762-0.407-2.178C486.945,220.875,488.049,222.234,489.81,222.677z"/>
<path fill-rule="evenodd" clip-rule="evenodd" fill="#FFFFFF" d="M414.841,278.579c0.332,0.274,0.665,0.55,0.997,0.825
	c-0.117,0.133-0.233,0.264-0.351,0.396c-0.317-0.296-0.634-0.59-0.951-0.885C414.638,278.804,414.739,278.69,414.841,278.579z"/>
<path fill-rule="evenodd" clip-rule="evenodd" fill="#FFFFFF" d="M584.84,332.861c-2.828,2.172-5.059,3.911-7.315,5.614
	c-9.666,7.3-19.41,14.498-28.957,21.95c-2.198,1.716-3.985,1.745-6.312,0.757c-6.498-2.76-13.036-5.425-19.574-8.085
	c-11.036-4.489-22.09-8.933-33.12-13.436c-1.155-0.473-2.198-1.219-3.56-1.987c0.772-0.931,1.146-1.624,1.723-2.039
	c7.231-5.219,14.496-10.395,21.746-15.589c4.298-3.079,8.606-6.142,12.861-9.276c1.53-1.13,2.866-1.501,4.819-0.714
	c9.506,3.84,19.095,7.471,28.646,11.196c8.627,3.364,17.246,6.752,25.864,10.141C582.457,331.707,583.219,332.109,584.84,332.861z
	 M545.293,333.113c1.087-0.518,2.193-0.926,3.17-1.539c1.485-0.934,2.856-2.047,4.321-3.016c2.49-1.646,2.557-3.202-0.176-4.561
	c-2.746-1.365-5.684-2.365-8.592-3.364c-0.736-0.253-1.851-0.164-2.502,0.237c-2.429,1.494-4.813,3.087-7.062,4.837
	c-1.365,1.064-1.095,2.562,0.486,3.458c1.047,0.594,2.2,1.014,3.335,1.436C540.529,331.44,542.806,332.228,545.293,333.113z
	 M521.199,336.288c-0.887,0.374-2.056,0.722-3.069,1.331c-1.409,0.848-2.736,1.845-4.034,2.859
	c-2.275,1.779-2.211,3.106,0.368,4.416c2.251,1.143,4.685,1.926,6.951,3.042c1.661,0.819,3.201,0.799,4.704-0.129
	c1.68-1.038,3.305-2.17,4.906-3.325c2.438-1.759,2.375-3.323-0.305-4.594c-2.48-1.176-5.072-2.12-7.626-3.138
	C522.588,336.55,522.027,336.485,521.199,336.288z"/>
<path fill-rule="evenodd" clip-rule="evenodd" fill="#FFFFFF" d="M625.571,340.736c-1.29,1.026-2.121,1.703-2.97,2.359
	c-11.741,9.091-23.485,18.18-35.229,27.267c-0.871,0.675-1.887,1.211-2.607,2.015c-2.286,2.55-4.677,2.494-7.713,1.191
	c-7.793-3.346-15.729-6.358-23.601-9.521c-1.099-0.443-2.154-0.994-3.707-1.717c1.159-1.136,1.976-2.134,2.976-2.887
	c13.006-9.799,26.043-19.555,39.056-29.343c1.582-1.189,3.044-1.787,5.13-0.941c8.677,3.515,17.427,6.854,26.141,10.275
	C623.735,339.705,624.372,340.112,625.571,340.736z"/>
<path fill-rule="evenodd" clip-rule="evenodd" fill="#FFFFFF" d="M627.932,341.676c0.082,1.013,0.227,1.743,0.186,2.463
	c-0.155,2.628-0.414,5.252-0.556,7.881c-0.267,4.944-0.411,9.896-0.743,14.835c-0.184,2.736-1.409,4.84-3.729,6.622
	c-9.158,7.044-18.152,14.301-27.209,21.478c-4.312,3.418-8.612,6.85-12.952,10.233c-0.663,0.517-1.508,0.803-2.638,1.387
	c-0.349-1.023-0.807-1.782-0.836-2.558c-0.091-2.424-0.086-4.857,0.004-7.282c0.146-3.96,0.361-7.92,0.605-11.876
	c0.101-1.645,0.359-3.279,0.537-4.92c0.18-1.656,1.1-2.828,2.379-3.811c9.16-7.041,18.322-14.081,27.461-21.15
	c5.396-4.176,10.749-8.409,16.131-12.603C626.885,342.13,627.288,342.002,627.932,341.676z"/>
<path fill-rule="evenodd" clip-rule="evenodd" fill="#FFFFFF" d="M482.205,343.997c2.547,0.92,4.508,1.558,6.413,2.328
	c16.358,6.613,32.708,13.249,49.056,19.888c0.816,0.331,1.564,0.921,2.404,1.098c3.587,0.751,4.362,3.106,4.008,6.367
	c-0.425,3.914-0.664,7.848-1.022,12.239c-1.618-0.558-3.053-0.976-4.427-1.539c-14.594-6-29.178-12.022-43.765-18.04
	c-3.061-1.262-6.141-2.479-9.176-3.8c-3.679-1.599-4.295-2.916-3.911-6.943c0.229-2.41,0.132-4.852,0.202-7.278
	C482.021,347.126,482.105,345.938,482.205,343.997z"/>
<path fill-rule="evenodd" clip-rule="evenodd" fill="#FFFFFF" d="M577.193,405.689c-2.318-0.741-4.029-1.154-5.634-1.822
	c-7.321-3.052-14.57-6.285-21.939-9.215c-2.837-1.127-3.885-3.096-3.97-5.823c-0.097-3.085-0.126-6.181-0.01-9.266
	c0.111-2.968,0.426-5.929,0.7-8.889c0.048-0.511,0.338-1,0.68-1.956c2.154,0.787,4.198,1.475,6.195,2.277
	c6.747,2.714,13.479,5.466,20.213,8.212c0.815,0.332,1.605,0.728,2.416,1.073c1.354,0.583,2.086,1.528,2.008,3.073
	c-0.209,4.172-0.389,8.344-0.557,12.518c-0.065,1.652-0.08,3.307-0.1,4.961C577.182,402.249,577.193,403.664,577.193,405.689z"/>
<path fill-rule="evenodd" clip-rule="evenodd" fill="#FFFFFF" d="M544.711,364.435c-1.799,1.611-3.043,1.143-4.259,0.646
	c-13.574-5.546-27.141-11.109-40.718-16.646c-5-2.039-10.02-4.029-15.041-6.017c-1.08-0.428-2.104-0.819-1.521-2.771
	c6.9,2.504,13.61,5.368,20.375,8.08c6.751,2.707,13.488,5.444,20.227,8.18C530.583,358.671,537.387,361.45,544.711,364.435z"/>
<path fill-rule="evenodd" clip-rule="evenodd" fill="#FFFFFF" d="M572.857,374.469c-2.571,1.6-4.17,1.01-6.194-2.207
	C569.061,372.346,570.852,373.421,572.857,374.469z"/>
<path fill-rule="evenodd" clip-rule="evenodd" fill="#FFFFFF" d="M576.363,375.901c-0.434,0.536-0.642,1.029-0.952,1.106
	c-0.241,0.059-0.815-0.369-0.864-0.645c-0.05-0.289,0.286-0.825,0.576-0.938C575.377,375.324,575.801,375.665,576.363,375.901z"/>
<path fill-rule="evenodd" clip-rule="evenodd" fill="#FFFFFF" d="M564.058,370.456c0.301,0.696,0.632,1.097,0.554,1.381
	c-0.086,0.307-0.557,0.506-0.861,0.751c-0.209-0.332-0.579-0.664-0.579-0.994C563.171,371.307,563.593,371.021,564.058,370.456z"/>
<path fill-rule="evenodd" clip-rule="evenodd" fill="#FFFFFF" d="M578.925,377.044c-0.31,0.457-0.612,0.918-0.95,1.354
	c-0.018,0.021-0.486-0.248-0.476-0.273c0.203-0.508,0.447-1.001,0.683-1.498C578.43,376.767,578.677,376.905,578.925,377.044z"/>
<path fill-rule="evenodd" clip-rule="evenodd" fill="#FFFFFF" d="M554.94,367.378c-0.354,0.271-0.698,0.659-0.812,0.6
	c-0.3-0.155-0.498-0.503-0.738-0.775c0.259-0.152,0.523-0.436,0.774-0.423C554.398,366.791,554.617,367.114,554.94,367.378z"/>
<path fill-rule="evenodd" clip-rule="evenodd" fill="#FFFFFF" d="M551.705,366.062c-0.39,0.245-0.65,0.537-0.881,0.516
	c-0.211-0.021-0.39-0.381-0.584-0.591c0.229-0.178,0.452-0.486,0.689-0.496C551.142,365.481,551.368,365.798,551.705,366.062z"/>
<path fill-rule="evenodd" clip-rule="evenodd" fill="#FFFFFF" d="M560.524,369.398c0.368,0.305,0.598,0.494,0.828,0.684
	c-0.214,0.181-0.405,0.415-0.651,0.515c-0.104,0.041-0.459-0.204-0.463-0.323C560.231,370.028,560.389,369.779,560.524,369.398z"/>
<path fill-rule="evenodd" clip-rule="evenodd" d="M267.001,234.444c1.271-0.763,2.653-1.635,4.076-2.433
	c2.454-1.375,2.8-2.126,2.554-4.748c-0.277-2.947-0.34-5.916-0.59-8.867c-0.213-2.515,0.895-4.201,2.993-5.415
	c5.523-3.195,11.009-6.454,16.557-9.605c2.77-1.572,5.612-3.029,8.477-4.422c3.46-1.682,6.958-1.738,10.504-0.078
	c2.925,1.37,4.899,3.238,4.773,6.771c-0.111,3.083,0.072,6.176-0.041,9.259c-0.092,2.543,0.627,4.42,2.973,5.762
	c1.997,1.142,2.047,3.045,0.208,4.546c-1.351,1.104-2.928,1.94-4.438,2.84c-8.978,5.35-17.983,10.655-26.937,16.044
	c-1.854,1.117-3.542,1.405-5.592,0.491c-4.02-1.793-8.081-3.521-12.219-5.018C268.018,238.747,266.682,237.574,267.001,234.444z
	 M282.32,219.949c4.569-0.177,7.767-1.573,10.838-3.383c3.69-2.176,7.411-4.302,11.11-6.464c2.561-1.499,5.156-2.947,7.645-4.557
	c2.193-1.418,2.034-3.018-0.396-4.095c-3.693-1.637-7.45-1.825-11.15,0.016c-2.158,1.074-4.303,2.184-6.395,3.38
	c-5.627,3.219-11.238,6.466-16.822,9.758c-2.097,1.236-2.125,2.834,0.069,3.835C279.084,219.291,281.183,219.627,282.32,219.949z
	 M312.093,207.718c-6.75,3.955-12.778,7.541-18.87,11.019c-1.557,0.889-2.191,2.054-2.062,3.757c0.241,3.176,0.414,6.36,0.738,9.528
	c0.216,2.106,1.267,2.616,3.199,1.503c5.046-2.905,10.067-5.855,15.025-8.907c0.842-0.518,1.848-1.603,1.883-2.462
	C312.192,217.575,312.093,212.98,312.093,207.718z M288.983,221.477c-2.902,0.272-5.384,0.48-7.86,0.747
	c-1.369,0.147-1.816,1.169-1.832,2.351c-0.046,3.408-0.03,6.818-0.019,10.227c0.005,1.569,0.905,2.583,2.366,2.689
	c1.724,0.125,3.5,0.03,5.208-0.25c2.559-0.419,2.793-0.664,2.737-3.193C289.493,229.998,289.207,225.953,288.983,221.477z
	 M273.788,233.722c-0.333-0.169-0.665-0.339-0.998-0.508c-0.312,0.55-0.625,1.1-0.938,1.65c0.354,0.191,0.708,0.384,1.062,0.576
	C273.205,234.867,273.497,234.294,273.788,233.722z M276.297,223.646c-0.249-0.015-0.498-0.028-0.747-0.043
	c0.037,0.498,0.074,0.995,0.111,1.492c0.178-0.001,0.355-0.003,0.534-0.005C276.229,224.608,276.263,224.127,276.297,223.646z"/>
<path fill-rule="evenodd" clip-rule="evenodd" d="M340.384,219.752c1.381,0.452,2.656,0.807,3.885,1.281
	c7.707,2.975,15.418,5.943,23.094,9.001c1.554,0.619,3.57,0.994,3.687,3.257c0.109,2.162-1.624,2.914-3.135,3.837
	c-6.288,3.844-12.609,7.634-18.808,11.616c-2.471,1.589-4.654,1.778-7.39,0.615c-8.004-3.401-16.123-6.526-24.176-9.813
	c-0.87-0.356-1.82-0.914-2.334-1.654c-0.944-1.364-0.323-3.095,1.376-4.117c5.845-3.513,11.719-6.977,17.584-10.457
	c1.607-0.954,3.222-1.9,4.838-2.839C339.472,220.209,339.96,219.975,340.384,219.752z M319.116,234.794
	c1.701,0.981,2.646,1.686,3.704,2.111c6.844,2.75,13.726,5.399,20.558,8.176c1.614,0.656,2.944,0.451,4.36-0.41
	c4.507-2.745,9.059-5.417,13.558-8.175c1.896-1.161,3.706-2.464,5.723-3.816c-0.651-0.445-0.894-0.683-1.183-0.798
	c-7.569-2.994-15.178-5.9-22.702-9.004c-2.264-0.934-4.033-0.319-5.887,0.785c-4.629,2.755-9.272,5.483-13.89,8.257
	C322.159,232.639,321.039,233.485,319.116,234.794z"/>
<path fill-rule="evenodd" clip-rule="evenodd" d="M407.341,210.2c-3.095-0.482-6.861-2.007-10.461-3.836
	c-1.897-0.965-1.787-5.408-0.008-6.673c1.337-0.951,2.813-1.703,4.223-2.553c3.06-1.845,6.142-2.056,9.399-0.413
	c1.756,0.886,3.737,1.323,5.5,2.196c3.248,1.609,3.505,5.549,0.594,7.611C412.373,209.52,410.898,210.174,407.341,210.2z
	 M415.929,201.82c-2.519-1.813-3.691-1.12-4.822,2.611C413.601,204.003,413.601,204.003,415.929,201.82z M401.678,203.737
	c0-2.001,0-3.192,0-4.884c-1.193,0.947-2.05,1.628-3.262,2.593C399.552,202.242,400.276,202.752,401.678,203.737z M408.438,200.923
	c-1.445-1.486-2.288-1.528-3.452-0.417c0.549,0.317,0.881,0.647,1.246,0.688C406.729,201.251,407.248,201.086,408.438,200.923z"/>
<path fill-rule="evenodd" clip-rule="evenodd" d="M315.603,255.959c0.281-0.342,0.819-1.289,1.617-1.894
	c1.216-0.923,2.71-1.48,3.911-2.419c2.015-1.576,3.98-1.343,6.09-0.316c1.677,0.814,3.467,1.405,5.094,2.301
	c2.267,1.247,2.442,3.773,0.337,5.324c-1.759,1.297-3.659,2.43-5.6,3.438c-0.676,0.351-1.748,0.358-2.486,0.095
	c-2.477-0.887-4.886-1.958-7.316-2.974C315.984,258.985,315.384,258.034,315.603,255.959z"/>
<path fill-rule="evenodd" clip-rule="evenodd" d="M63.184,183.143c-1.087-0.356-2.592-0.695-3.954-1.336
	c-1.554-0.731-1.753-1.832-0.861-3.212c2.069-3.198,8.859-3.968,11.54-1.323c1.026,1.013,1.13,2.002,0.209,3.176
	C68.436,182.589,65.988,182.672,63.184,183.143z M60.078,179.358c3.04,1.463,6.344,1.201,8.303-0.428
	C65.645,177.069,63.121,177.769,60.078,179.358z"/>
<path fill-rule="evenodd" clip-rule="evenodd" d="M354.675,339.801c-1.624-0.568-3.369-0.922-4.842-1.756
	c-2.09-1.185-2.145-2.866-0.516-4.581c2.876-3.031,8.376-2.922,11.747-0.071c1.11,0.939,0.932,2.182,0.092,3.25
	C359.55,338.688,357.455,339.699,354.675,339.801z M350.478,335.233c1.212,2.247,3.17,1.96,4.958,1.952
	c1.604-0.006,3.277-0.031,4.084-1.86C356.535,332.806,353.56,332.742,350.478,335.233z"/>
<path fill-rule="evenodd" clip-rule="evenodd" d="M67.377,224.823c-0.989-0.058-2.117,0.159-2.933-0.248
	c-0.995-0.496-2.137-1.389-2.438-2.354c-0.228-0.729,0.522-2.169,1.263-2.718c2.656-1.964,5.744-2.252,8.809-1.182
	c2.542,0.889,2.9,3.655,0.592,5.111c-1.494,0.942-3.42,1.2-5.153,1.765C67.471,225.073,67.424,224.949,67.377,224.823z
	 M72.237,221.356c-2.913-1.842-5.696-1.655-7.001,0.314C67.514,222.905,69.681,223.029,72.237,221.356z"/>
<path fill-rule="evenodd" clip-rule="evenodd" d="M522.943,232.138c-2.9-0.241-4.879-0.737-6.37-2.464
	c-0.962-1.113-0.986-2.09,0.055-3.181c3.169-3.322,7.743-3.381,10.874-0.094c1.535,1.61,1.509,2.876-0.398,3.996
	C525.629,231.26,523.926,231.739,522.943,232.138z M525.92,228.366c-2.354-2.193-5.395-2.191-7.471-0.169
	C520.925,230.308,522.763,230.388,525.92,228.366z"/>
<path fill-rule="evenodd" clip-rule="evenodd" d="M545.293,333.113c-2.487-0.886-4.764-1.673-7.02-2.512
	c-1.135-0.422-2.288-0.842-3.335-1.436c-1.581-0.896-1.852-2.394-0.486-3.458c2.249-1.75,4.634-3.343,7.062-4.837
	c0.651-0.401,1.766-0.49,2.502-0.237c2.908,0.999,5.846,1.999,8.592,3.364c2.732,1.358,2.666,2.914,0.176,4.561
	c-1.465,0.969-2.836,2.082-4.321,3.016C547.486,332.188,546.38,332.596,545.293,333.113z M550.99,326.585
	c-2.534-0.962-4.912-1.973-7.362-2.756c-1.636-0.524-2.932,0.136-3.82,2.065c2.314,1.774,4.899,2.835,7.697,3.096
	C548.845,329.114,550.2,328.355,550.99,326.585z"/>
<path fill-rule="evenodd" clip-rule="evenodd" d="M521.199,336.288c0.828,0.197,1.389,0.262,1.896,0.463
	c2.554,1.018,5.146,1.962,7.626,3.138c2.68,1.271,2.743,2.835,0.305,4.594c-1.602,1.155-3.227,2.287-4.906,3.325
	c-1.503,0.928-3.043,0.948-4.704,0.129c-2.267-1.116-4.7-1.899-6.951-3.042c-2.579-1.31-2.644-2.637-0.368-4.416
	c1.298-1.015,2.625-2.012,4.034-2.859C519.144,337.01,520.312,336.662,521.199,336.288z M516.022,343.145
	c2.324,0.965,4.288,1.87,6.313,2.6c2.887,1.041,4.749,0.107,6.266-3.212c-1.461-0.655-2.906-1.351-4.387-1.96
	C520.247,338.937,519.522,339.147,516.022,343.145z"/>
<path fill-rule="evenodd" clip-rule="evenodd" fill="#FFFFFF" d="M282.32,219.949c-1.137-0.322-3.236-0.659-5.101-1.509
	c-2.195-1.001-2.166-2.6-0.069-3.835c5.584-3.292,11.195-6.54,16.822-9.758c2.092-1.196,4.237-2.306,6.395-3.38
	c3.7-1.841,7.457-1.653,11.15-0.016c2.429,1.077,2.589,2.677,0.396,4.095c-2.489,1.609-5.084,3.058-7.645,4.557
	c-3.699,2.162-7.419,4.288-11.11,6.464C290.087,218.376,286.89,219.772,282.32,219.949z"/>
<path fill-rule="evenodd" clip-rule="evenodd" fill="#FFFFFF" d="M312.093,207.718c0,5.262,0.099,9.856-0.087,14.438
	c-0.035,0.859-1.041,1.944-1.883,2.462c-4.958,3.052-9.979,6.001-15.025,8.907c-1.932,1.113-2.983,0.604-3.199-1.503
	c-0.324-3.168-0.497-6.352-0.738-9.528c-0.129-1.704,0.506-2.868,2.062-3.757C299.315,215.259,305.344,211.673,312.093,207.718z"/>
<path fill-rule="evenodd" clip-rule="evenodd" fill="#FFFFFF" d="M288.983,221.477c0.224,4.477,0.51,8.521,0.599,12.57
	c0.057,2.529-0.178,2.774-2.737,3.193c-1.708,0.28-3.484,0.375-5.208,0.25c-1.46-0.105-2.36-1.12-2.366-2.689
	c-0.011-3.409-0.027-6.818,0.019-10.227c0.016-1.182,0.463-2.204,1.832-2.351C283.6,221.957,286.082,221.749,288.983,221.477z"/>
<path fill-rule="evenodd" clip-rule="evenodd" fill="#FFFFFF" d="M273.788,233.722c-0.291,0.572-0.583,1.145-0.874,1.717
	c-0.354-0.192-0.708-0.384-1.062-0.576c0.312-0.55,0.625-1.1,0.938-1.65C273.123,233.383,273.455,233.552,273.788,233.722z"/>
<path fill-rule="evenodd" clip-rule="evenodd" fill="#FFFFFF" d="M276.297,223.646c-0.034,0.481-0.069,0.962-0.103,1.443
	c-0.178,0.002-0.355,0.003-0.534,0.005c-0.037-0.497-0.074-0.994-0.111-1.492C275.799,223.617,276.048,223.631,276.297,223.646z"/>
<path fill-rule="evenodd" clip-rule="evenodd" fill="#FFFFFF" d="M319.116,234.794c1.923-1.31,3.043-2.156,4.241-2.875
	c4.617-2.773,9.261-5.502,13.89-8.257c1.854-1.104,3.623-1.719,5.887-0.785c7.524,3.104,15.133,6.011,22.702,9.004
	c0.289,0.115,0.531,0.354,1.183,0.798c-2.017,1.352-3.826,2.655-5.723,3.816c-4.499,2.758-9.051,5.43-13.558,8.175
	c-1.416,0.861-2.746,1.066-4.36,0.41c-6.832-2.776-13.714-5.426-20.558-8.176C321.763,236.48,320.817,235.776,319.116,234.794z"/>
<path fill-rule="evenodd" clip-rule="evenodd" fill="#FFFFFF" d="M415.929,201.82c-2.328,2.183-2.328,2.183-4.822,2.611
	C412.237,200.7,413.41,200.007,415.929,201.82z"/>
<path fill-rule="evenodd" clip-rule="evenodd" fill="#FFFFFF" d="M401.678,203.737c-1.401-0.985-2.126-1.495-3.262-2.292
	c1.212-0.964,2.068-1.646,3.262-2.593C401.678,200.545,401.678,201.736,401.678,203.737z"/>
<path fill-rule="evenodd" clip-rule="evenodd" fill="#FFFFFF" d="M408.438,200.923c-1.19,0.163-1.71,0.328-2.206,0.271
	c-0.365-0.042-0.697-0.372-1.246-0.688C406.15,199.396,406.993,199.437,408.438,200.923z"/>
<path fill-rule="evenodd" clip-rule="evenodd" fill="#FFFFFF" d="M60.078,179.358c3.042-1.59,5.567-2.289,8.303-0.428
	C66.422,180.559,63.118,180.822,60.078,179.358z"/>
<path fill-rule="evenodd" clip-rule="evenodd" fill="#FFFFFF" d="M350.478,335.233c3.082-2.491,6.058-2.428,9.042,0.092
	c-0.807,1.829-2.48,1.854-4.084,1.86C353.647,337.193,351.689,337.48,350.478,335.233z"/>
<path fill-rule="evenodd" clip-rule="evenodd" fill="#FFFFFF" d="M72.237,221.356c-2.556,1.673-4.723,1.549-7.001,0.314
	C66.541,219.701,69.324,219.514,72.237,221.356z"/>
<path fill-rule="evenodd" clip-rule="evenodd" fill="#FFFFFF" d="M525.92,228.366c-3.157,2.022-4.995,1.941-7.471-0.169
	C520.525,226.175,523.565,226.173,525.92,228.366z"/>
<path fill-rule="evenodd" clip-rule="evenodd" fill="#FFFFFF" d="M550.99,326.585c-0.79,1.771-2.146,2.529-3.485,2.405
	c-2.798-0.261-5.383-1.321-7.697-3.096c0.889-1.93,2.185-2.59,3.82-2.065C546.078,324.612,548.456,325.623,550.99,326.585z"/>
<path fill-rule="evenodd" clip-rule="evenodd" fill="#FFFFFF" d="M516.022,343.145c3.5-3.997,4.225-4.208,8.192-2.572
	c1.48,0.609,2.926,1.305,4.387,1.96c-1.517,3.319-3.379,4.253-6.266,3.212C520.311,345.015,518.347,344.109,516.022,343.145z"/>
<polyline fill="#4D4D4D" points="501.419,311.464 479.942,303.195 497.857,289.026 420.634,301.965 425.127,345.715 
	443.831,331.387 465.442,339.643 501.419,311.464 "/>
<path fill="#4D4D4D" d="M568.592,269.505v0.26c0,6.833-8.924,6.871-8.924,11.109v6.147c1.599,0.467,2.809,1.905,2.809,3.676
	c0,2.123-1.728,3.798-3.869,3.798c-2.09,0-3.792-1.675-3.792-3.798c0-1.771,1.177-3.209,2.775-3.676v-0.815
	c0-3.985-8.909-5.37-8.909-12.508v-1.035c-0.987-0.437-1.68-1.378-1.68-2.547c0-1.514,1.188-2.733,2.708-2.733
	s2.737,1.22,2.737,2.733c0,1.169-0.692,2.11-1.644,2.547v1.21c0,3.683,4.153,5.659,6.787,8.135v-20.035h-2.426l3.442-6.529
	l3.494,6.529h-2.434v14.8c2.65-2.155,6.834-3.424,6.834-6.97v-0.298h-1.544v-5.167h5.142v5.167H568.592"/>
<path fill="none" stroke="#4D4D4D" stroke-width="0.75" d="M533.701,275.099c0,13.729,11.127,24.849,24.848,24.849
	c13.725,0,24.848-11.12,24.848-24.849c0-13.728-11.123-24.848-24.848-24.848C544.828,250.251,533.701,261.371,533.701,275.099z"/>
</svg>
